<svg width="61" height="61" viewBox="0 0 61 61" fill="none" xmlns="http://www.w3.org/2000/svg">
<path d="M32.0428 51.3304C30.4855 51.3339 28.9881 50.7301 27.8688 49.6473C29.0015 50.6956 30.4873 51.2794 32.0307 51.2827C33.5741 51.2859 35.0623 50.7083 36.1994 49.6648C35.0817 50.737 33.5917 51.334 32.0428 51.3304ZM36.6084 37.1924L38.2765 38.8631L36.6084 37.1924ZM50.3499 35.5093C51.4007 34.3913 51.9858 32.9146 51.9858 31.3802C51.9858 29.8457 51.4007 28.3691 50.3499 27.251C51.4035 28.3676 51.9904 29.8449 51.9904 31.3802C51.9904 32.9154 51.4035 34.3927 50.3499 35.5093ZM13.6959 35.4844C12.6552 34.3701 12.0764 32.9023 12.0764 31.3777C12.0764 29.853 12.6552 28.3852 13.6959 27.2709C12.6569 28.386 12.0792 29.8535 12.0792 31.3777C12.0792 32.9018 12.6569 34.3693 13.6959 35.4844Z" fill="white"/>
<path d="M32.0429 10.2582C30.1249 10.238 28.2771 10.9786 26.9039 12.3178L12.9779 26.2438C12.3022 26.9182 11.7662 27.7193 11.4004 28.6011C11.0347 29.4829 10.8464 30.4282 10.8464 31.3829C10.8464 32.3375 11.0347 33.2828 11.4004 34.1646C11.7662 35.0464 12.3022 35.8475 12.9779 36.5219L26.9039 50.4479C27.5783 51.1236 28.3793 51.6596 29.2612 52.0254C30.143 52.3911 31.0883 52.5794 32.0429 52.5794C32.9976 52.5794 33.9429 52.3911 34.8247 52.0254C35.7065 51.6596 36.5075 51.1236 37.182 50.4479L51.108 36.5219C51.7836 35.8475 52.3197 35.0464 52.6854 34.1646C53.0512 33.2828 53.2394 32.3375 53.2394 31.3829C53.2394 30.4282 53.0512 29.4829 52.6854 28.6011C52.3197 27.7193 51.7836 26.9182 51.108 26.2438L37.182 12.3178C35.8088 10.9786 33.9609 10.238 32.0429 10.2582ZM32.0429 50.0365C30.7831 50.05 29.5692 49.5641 28.6668 48.685L14.7408 34.759C14.2971 34.3158 13.9452 33.7895 13.7051 33.2102C13.465 32.6309 13.3414 32.01 13.3414 31.3829C13.3414 30.7558 13.465 30.1348 13.7051 29.5555C13.9452 28.9762 14.2971 28.4499 14.7408 28.0067L28.6668 14.0807C29.5767 13.213 30.7857 12.729 32.0429 12.729C33.3002 12.729 34.5092 13.213 35.4191 14.0807L49.3451 28.0067C49.7887 28.4499 50.1406 28.9762 50.3807 29.5555C50.6208 30.1348 50.7444 30.7558 50.7444 31.3829C50.7444 32.01 50.6208 32.6309 50.3807 33.2102C50.1406 33.7895 49.7887 34.3158 49.3451 34.759L35.4191 48.685C34.5166 49.5641 33.3027 50.05 32.0429 50.0365ZM32.0429 21.409C30.059 21.409 28.1563 22.1971 26.7535 23.6C25.3506 25.0028 24.5625 26.9055 24.5625 28.8894V37.6165C24.5625 37.9472 24.6939 38.2643 24.9277 38.4981C25.1615 38.7319 25.4786 38.8633 25.8093 38.8633C26.1399 38.8633 26.457 38.7319 26.6908 38.4981C26.9246 38.2643 27.056 37.9472 27.056 37.6165V28.8894C27.056 27.5668 27.5814 26.2983 28.5166 25.3631C29.4519 24.4279 30.7203 23.9025 32.0429 23.9025C33.3655 23.9025 34.634 24.4279 35.5692 25.3631C36.5044 26.2983 37.0299 27.5668 37.0299 28.8894V35.8536L36.6658 35.4871C36.4317 35.253 36.1142 35.1215 35.7831 35.1215C35.4521 35.1215 35.1345 35.253 34.9004 35.4871C34.6663 35.7212 34.5348 36.0387 34.5348 36.3698C34.5348 36.7009 34.6663 37.0184 34.9004 37.2525L37.3939 39.746C37.5097 39.8621 37.6473 39.9542 37.7988 40.017C37.9502 40.0799 38.1126 40.1122 38.2766 40.1122C38.4406 40.1122 38.603 40.0799 38.7544 40.017C38.9059 39.9542 39.0435 39.8621 39.1593 39.746L41.6527 37.2525C41.8868 37.0184 42.0184 36.7009 42.0184 36.3698C42.0184 36.0387 41.8868 35.7212 41.6527 35.4871C41.4186 35.253 41.1011 35.1215 40.7701 35.1215C40.439 35.1215 40.1215 35.253 39.8874 35.4871L39.5233 35.8536V28.8894C39.5233 26.9055 38.7352 25.0028 37.3324 23.6C35.9295 22.1971 34.0269 21.409 32.0429 21.409Z" fill="#000D2F"/>
</svg>
