<svg width="61" height="61" viewBox="0 0 61 61" fill="none" xmlns="http://www.w3.org/2000/svg">
<path d="M27.9039 40.5825L23.6158 36.2944L20.9714 38.9387L27.9039 45.8712L40.4467 33.3284L37.8023 30.6841L27.9039 40.5825Z" fill="#000D2F"/>
<path d="M45.6698 23.527V17.0453C45.6698 13.0774 44.0936 9.27208 41.2879 6.46639C38.4822 3.6607 34.6769 2.08447 30.709 2.08447C26.7412 2.08447 22.9359 3.6607 20.1302 6.46639C17.3245 9.27208 15.7482 13.0774 15.7482 17.0453V23.5289C12.1444 27.3338 10.1365 32.3757 10.1379 37.6164C10.1379 48.9754 19.3501 58.1875 30.709 58.1875C42.0718 58.1875 51.2801 48.9754 51.2801 37.6164C51.2801 32.1576 49.1389 27.2111 45.6698 23.527ZM19.4884 17.0453C19.4884 10.8571 24.5209 5.82467 30.709 5.82467C36.8972 5.82467 41.9296 10.8571 41.9296 17.0453V20.389C38.595 18.2052 34.6951 17.043 30.709 17.0453C26.723 17.043 22.823 18.2052 19.4884 20.389V17.0453ZM30.709 54.4473C21.4128 54.4473 13.8781 46.9126 13.8781 37.6164C13.8781 28.3201 21.4128 20.7855 30.709 20.7855C40.0053 20.7855 47.5399 28.3201 47.5399 37.6164C47.5399 46.9126 40.0053 54.4473 30.709 54.4473Z" fill="#000D2F"/>
</svg>
