<svg width="633" height="1118" viewBox="0 0 633 1118" fill="none" xmlns="http://www.w3.org/2000/svg">
<path d="M5.06208 1.03564C-19.4064 60.8324 77.2416 164.581 133.315 139.178C203.407 107.424 119.147 58.0285 81.119 89.1945C43.0905 120.361 4.31643 175.636 59.495 217.387C141 279.057 108.743 172.843 274.99 235.616C351.047 264.334 400.216 369.271 351.047 420.848C274.99 500.628 335.418 531.987 396.562 555.509C445.5 574.335 454.418 497.642 491.719 549.815C555.156 638.546 357.805 649.409 376.625 739.815C400.402 854.035 537.031 756.659 537.031 848.799C537.031 923.063 431 954.89 507.634 1044.17C567.5 1113.91 634.906 1085.09 632.187 1117.88" stroke="#00D285"/>
</svg>
