<svg width="65" height="65" viewBox="0 0 65 65" fill="none" xmlns="http://www.w3.org/2000/svg">
<path fill-rule="evenodd" clip-rule="evenodd" d="M60.6795 28.8354C60.6795 25.5301 58.0005 22.8511 54.6952 22.8511H38.737C35.4317 22.8511 32.7527 25.5301 32.7527 28.8354C32.7527 35.3603 32.7527 48.2425 32.7527 54.7675C32.7527 58.0728 35.4317 60.7518 38.737 60.7518H54.6952C58.0005 60.7518 60.6795 58.0728 60.6795 54.7675V28.8354ZM56.69 28.8354V54.7675C56.69 55.8686 55.7963 56.7622 54.6952 56.7622H38.737C37.6359 56.7622 36.7422 55.8686 36.7422 54.7675C36.7422 48.2425 36.7422 35.3603 36.7422 28.8354C36.7422 27.7343 37.6359 26.8406 38.737 26.8406H54.6952C55.7963 26.8406 56.69 27.7343 56.69 28.8354Z" fill="#000D2F"/>
<path fill-rule="evenodd" clip-rule="evenodd" d="M42.7266 52.7726H50.7057C51.8068 52.7726 52.7005 51.8789 52.7005 50.7778C52.7005 49.6767 51.8068 48.783 50.7057 48.783H42.7266C41.6255 48.783 40.7318 49.6767 40.7318 50.7778C40.7318 51.8789 41.6255 52.7726 42.7266 52.7726ZM36.7423 32.8249C36.7423 31.7237 35.8486 30.8301 34.7475 30.8301H6.8207C6.8207 30.8301 4.82593 34.6999 4.82593 32.8288C4.82593 38.3344 9.29023 42.7987 14.7958 42.7987C23.0502 42.7987 34.7475 42.7987 34.7475 42.7987C35.8486 42.7987 36.7423 41.9051 36.7423 40.8039V32.8249ZM9.15458 34.8196H32.7528V38.8092H14.7958C12.1906 38.8092 9.97443 37.1435 9.15458 34.8196Z" fill="#000D2F"/>
<path fill-rule="evenodd" clip-rule="evenodd" d="M14.7998 32.8248V10.8823C14.7998 10.3537 15.0093 9.84499 15.3843 9.47196C15.7573 9.09695 16.266 8.8875 16.7946 8.8875H42.7267C43.2553 8.8875 43.764 9.09695 44.137 9.47196C44.512 9.84499 44.7215 10.3537 44.7215 10.8823V24.8457C44.7215 25.9468 45.6151 26.8405 46.7162 26.8405C47.8173 26.8405 48.711 25.9468 48.711 24.8457C48.711 24.8457 48.711 16.1724 48.711 10.8823C48.711 9.29443 48.0807 7.77241 46.9576 6.65135C45.8365 5.52829 44.3145 4.89795 42.7267 4.89795C36.2018 4.89795 23.3195 4.89795 16.7946 4.89795C15.2068 4.89795 13.6848 5.52829 12.5637 6.65135C11.4406 7.77241 10.8103 9.29443 10.8103 10.8823V32.8248C10.8103 33.9259 11.704 34.8196 12.8051 34.8196C13.9062 34.8196 14.7998 33.9259 14.7998 32.8248Z" fill="#000D2F"/>
<path d="M6.8207 34.8196C7.92238 34.8196 8.81547 33.9265 8.81547 32.8249C8.81547 31.7232 7.92238 30.8301 6.8207 30.8301C5.71902 30.8301 4.82593 31.7232 4.82593 32.8249C4.82593 33.9265 5.71902 34.8196 6.8207 34.8196Z" fill="#000D2F"/>
</svg>
