<svg width="61" height="61" viewBox="0 0 61 61" fill="none" xmlns="http://www.w3.org/2000/svg">
<g clip-path="url(#clip0_723_170)">
<path d="M22.3051 31.2956C21.0484 27.1883 11.6806 26.6313 8.33171 28.0503C5.282 29.3392 -0.696562 36.8772 1.80995 40.2836C3.11039 42.049 6.62848 41.3125 8.31214 41.271C11.8498 41.1824 10.8348 40.9373 10.1811 43.857C10.0027 44.6545 9.73227 46.6961 9.92791 47.5155C10.3272 49.1876 10.7461 49.6215 12.3953 50.1566C14.1595 50.7274 16.5429 50.2026 18.3635 50.2257C20.7515 50.2567 23.1153 50.6192 25.4894 50.8356C30.5612 51.2959 35.672 51.4985 40.7621 51.6021C43.0868 51.6504 48.681 52.4042 50.5246 50.343C52.206 48.4626 51.2612 44.7592 50.7467 42.705C50.0332 39.8509 49.597 40.2215 47.5727 38.066C45.0754 35.4064 43.6473 32.4891 40.4192 30.4613C37.4915 28.62 34.1552 28.01 30.743 27.7568C22.9392 27.1757 17.0228 32.2186 13.0271 38.4872C12.0282 40.0535 14.5174 41.4978 15.5106 39.9395C21.0277 31.2853 32.5118 26.766 41.0556 34.5629C42.9015 36.2465 44.5691 38.5447 46.0571 40.5598C47.018 41.8614 47.8835 43.1711 48.1666 44.9272C48.7316 48.4396 48.4462 48.5869 44.5679 48.7676C36.9885 49.1209 29.2826 48.1944 21.7458 47.5661C18.8963 47.329 13.179 48.6789 12.9557 44.6211C12.8556 42.8097 14.56 41.4506 14.1123 39.5287C14.0475 39.2879 13.9206 39.0684 13.7443 38.892C13.568 38.7157 13.3484 38.5888 13.1077 38.524C12.1881 38.3031 11.2663 38.3974 10.3261 38.3859C8.49167 38.3663 4.98279 38.8969 4.51785 37.8105C3.39004 35.1785 8.19936 32.3406 9.55159 31.6513C11.34 30.0136 13.3321 29.6822 15.5279 30.6569C16.8743 31.0942 18.207 31.5603 19.5304 32.0598C20.0713 33.8252 22.8483 33.0725 22.3039 31.2945L22.3051 31.2956Z" fill="#000D2F"/>
<path d="M47.468 41.5576C50.3002 41.5622 53.2038 41.7705 56.0291 41.5737C57.0648 41.5012 58.1236 41.4667 58.9867 40.8257C62.0801 38.5309 58.3963 34.7056 57.2858 32.5432C53.8977 25.9431 45.0271 25.3689 39.2028 29.1091C37.6491 30.1068 39.09 32.5984 40.654 31.5949C42.7922 30.2208 45.1652 29.4256 47.7339 29.6235C51.5811 29.9216 53.4017 31.8469 55.1728 34.9749C56.0291 36.4882 57.5608 37.8519 55.3155 38.6955C53.4788 39.386 49.4095 38.684 47.4669 38.6805C45.6163 38.6771 45.614 41.5542 47.4669 41.5576H47.468Z" fill="#000D2F"/>
<path d="M44.4619 27.5431C44.63 26.1805 44.4677 25.0734 44.3538 23.7465C44.1926 21.8753 45.4632 20.9857 47.2539 20.7912C48.9755 20.6036 49.8662 21.2412 50.0757 22.9686C50.223 24.1861 50.2644 25.8974 49.7742 27.0229C49.0422 28.7031 51.52 30.1693 52.2588 28.4741C53.8159 24.8973 53.4637 18.1627 48.4266 17.8692C45.9891 17.7265 43.7323 18.5022 42.2259 20.462C41.5354 21.3585 41.2385 22.2769 41.3628 23.4151C41.5216 24.8628 41.7678 26.0574 41.5849 27.5431C41.3593 29.3764 44.2387 29.3603 44.4619 27.5431ZM17.971 28.1749C17.9272 27.5489 18.9434 26.9217 19.2714 26.4625C19.6857 25.8825 19.9366 25.2426 20.0804 24.5463C20.2968 23.4991 20.306 22.0582 20.0183 21.0156C19.3428 18.562 16.2942 17.5286 14.0639 17.4814C11.5528 17.4262 9.02325 18.1178 8.0508 20.6991C7.00584 23.4749 8.36613 26.1771 9.69188 28.5846C10.5849 30.2073 13.0696 28.7572 12.1754 27.1323C11.3709 25.6707 10.0924 23.7373 10.6494 21.9834C11.2363 20.1341 14.1824 19.9258 15.7337 20.6232C17.3794 21.3631 17.8916 23.1481 16.9191 24.7144C16.1365 25.978 14.9742 26.4786 15.0939 28.1749C15.2239 30.0116 18.101 30.0254 17.971 28.1749ZM26.9509 27.2416C25.4767 26.8733 24.6976 23.4162 24.4064 22.2585C24.0255 20.7405 23.854 19.1167 24.2637 17.5804C25.2787 13.7711 30.2296 11.6444 33.811 13.2521C37.0333 14.6975 37.8435 20.3228 36.7387 23.4484C35.9711 25.6212 33.7465 26.6109 32.6613 28.6732C31.8005 30.3109 34.284 31.7667 35.146 30.1256C36.2254 28.0713 38.5823 27.1138 39.5272 24.9572C40.51 22.7131 39.9092 19.7129 39.5617 17.3962C39.2832 15.5342 38.9207 13.0541 37.4131 11.7456C35.6523 10.2139 32.2229 9.68796 29.9914 9.92734C25.5952 10.3992 21.8907 13.6157 21.2623 18.0234C20.7652 21.5001 22.1646 29.0139 26.1856 30.0162C27.9832 30.4651 28.7496 27.6916 26.9509 27.2427V27.2416Z" fill="#000D2F"/>
</g>
<defs>
<clipPath id="clip0_723_170">
<rect width="59.8432" height="59.8432" fill="white" transform="translate(0.782227 0.902344)"/>
</clipPath>
</defs>
</svg>
