<svg width="61" height="61" viewBox="0 0 61 61" fill="none" xmlns="http://www.w3.org/2000/svg">
<g clip-path="url(#clip0_723_147)">
<path d="M54.7428 38.0145C54.7335 38.0145 54.7241 38.0145 54.7241 38.0145C53.6395 35.7143 51.9564 33.2457 49.8151 30.7585C55.6685 23.8952 57.6228 17.5649 55.0233 13.6751C52.667 10.1687 47.1222 9.29909 39.6979 11.244C37.1732 4.65189 33.4704 0.902344 29.4123 0.902344C27.7573 0.902344 26.177 1.51013 24.6903 2.69764C24.1667 2.46388 23.587 2.33297 22.9792 2.33297C20.6416 2.33297 18.7434 4.23112 18.7434 6.56875C18.7434 7.68146 19.1829 8.69131 19.8935 9.45805C19.6223 10.0565 19.3605 10.683 19.1174 11.3375C11.637 9.40195 6.05477 10.2902 3.71715 13.8247C1.13641 17.7332 3.11872 24.0542 9.00953 30.8707C3.15612 37.7433 1.21121 44.083 3.81065 47.9728C4.36233 48.7863 5.09167 49.4688 5.98932 50.0018C5.99867 52.3301 7.89682 54.2189 10.2251 54.2189C12.1045 54.2189 13.6754 52.9846 14.2365 51.2922C15.7699 51.1426 17.4063 50.8434 19.1268 50.3945C21.6421 56.996 25.3542 60.7549 29.4123 60.7549C33.4891 60.7549 37.2013 56.9679 39.7259 50.3197C42.3067 50.9836 44.6723 51.3389 46.7388 51.3389C50.666 51.3389 53.574 50.1608 55.1075 47.8419C55.4161 47.3837 55.6498 46.8787 55.8275 46.3458C57.6321 45.8595 58.9786 44.2232 58.9786 42.269C58.988 39.9126 57.0805 38.0145 54.7428 38.0145ZM39.5202 21.4267C38.66 20.8002 37.7623 20.1831 36.8553 19.5753C35.3779 18.5935 33.8445 17.6678 32.3016 16.8075C34.2559 15.9005 36.154 15.1525 37.9961 14.5447C38.6413 16.6579 39.1555 18.9862 39.5202 21.4267ZM27.2243 6.56875C27.2243 5.83006 27.0186 5.14747 26.682 4.53969C27.5796 3.90385 28.496 3.57659 29.4123 3.57659C32.2175 3.57659 35.0507 6.709 37.1171 12.0107C34.6205 12.8336 32.0211 13.9182 29.3656 15.2554C26.7661 13.9556 24.1947 12.899 21.6888 12.0855C21.8665 11.618 22.0535 11.1692 22.2498 10.7297C22.4836 10.7671 22.7267 10.8045 22.9792 10.8045C25.3262 10.8045 27.2243 8.90637 27.2243 6.56875ZM22.9885 5.00721C23.8488 5.00721 24.5501 5.7085 24.5501 6.56875C24.5501 7.42899 23.8488 8.13028 22.9885 8.13028C22.1283 8.13028 21.427 7.42899 21.427 6.56875C21.427 5.7085 22.1283 5.00721 22.9885 5.00721ZM20.8099 14.6289C22.6519 15.2273 24.5314 15.9473 26.4482 16.8262C24.9054 17.7052 23.3813 18.6402 21.9226 19.622C21.0343 20.2205 20.1553 20.8283 19.3138 21.4547C19.6691 19.033 20.174 16.7234 20.8099 14.6289ZM5.95192 15.3021C7.5602 12.871 12.2074 12.3567 18.2385 13.8715C17.3315 16.873 16.6769 20.2579 16.3123 23.783C14.3113 25.4194 12.4692 27.1305 10.8142 28.8697C6.05477 23.2687 4.15662 18.0231 5.95192 15.3021ZM16.0224 34.134C14.8162 33.0681 13.6754 31.9741 12.6282 30.8707C13.6848 29.7486 14.8162 28.6546 16.0224 27.57C15.9663 28.6546 15.9476 29.7393 15.9476 30.8239C15.9383 31.9367 15.9663 33.04 16.0224 34.134ZM10.2251 51.5353C9.36485 51.5353 8.66356 50.834 8.66356 49.9738C8.66356 49.1135 9.36485 48.4122 10.2251 48.4122C11.0853 48.4122 11.7866 49.1135 11.7866 49.9738C11.7866 50.834 11.0853 51.5353 10.2251 51.5353ZM14.2178 48.5992C13.6474 46.9349 12.0765 45.7286 10.2251 45.7286C8.86927 45.7286 7.67241 46.3832 6.89632 47.3743C6.55035 47.1125 6.26048 46.8133 6.03607 46.4767C4.19402 43.7183 6.02672 38.5755 10.8235 32.8624C12.4786 34.5828 14.3113 36.2753 16.3123 37.8929C16.6863 41.4274 17.3408 44.831 18.2572 47.8419C16.8359 48.2065 15.4801 48.459 14.2178 48.5992ZM19.3138 40.2118C20.1834 40.8477 21.0717 41.4648 21.9787 42.0632C23.4561 43.045 24.9802 43.9707 26.5324 44.8403C24.5875 45.7473 22.6893 46.486 20.8379 47.0938C20.1927 44.9713 19.6785 42.6523 19.3138 40.2118ZM29.4123 58.062C26.5978 58.062 23.7646 54.9295 21.6982 49.6184C24.2134 48.7956 26.8129 47.7109 29.4497 46.3738C32.0585 47.6735 34.6299 48.7302 37.1452 49.5436C35.0787 54.9108 32.2362 58.062 29.4123 58.062ZM38.0241 47.019C36.1821 46.4206 34.2933 45.6912 32.3764 44.8216C33.9099 43.952 35.434 43.017 36.9208 42.0258C37.8091 41.4274 38.688 40.8103 39.5296 40.1838C39.1649 42.6149 38.6506 44.9245 38.0241 47.019ZM39.9597 36.4716C38.5291 37.6124 37.0143 38.7251 35.4247 39.7911C33.4798 41.0908 31.4788 42.2877 29.4497 43.3723C27.4113 42.297 25.3916 41.1095 23.4561 39.8285C21.8571 38.7719 20.333 37.6592 18.8837 36.5184C18.7154 34.667 18.6218 32.7595 18.6218 30.8333C18.6218 28.9445 18.7154 27.0463 18.8743 25.1762C20.3049 24.0355 21.8197 22.9134 23.4187 21.8475C25.3355 20.5571 27.3365 19.3696 29.3843 18.2849C31.432 19.3509 33.4424 20.5384 35.3779 21.8194C36.9862 22.8854 38.5104 23.9981 39.9503 25.1388C40.1186 26.9996 40.2122 28.8977 40.2122 30.8239C40.2122 32.7127 40.1186 34.6015 39.9597 36.4716ZM52.7979 15.1712C54.6119 17.8829 52.7325 23.1378 48.0011 28.7762C46.3554 27.0463 44.5134 25.3633 42.5217 23.755C42.1477 20.2018 41.4838 16.7888 40.5675 13.7873C46.6359 12.2351 51.1522 12.7307 52.7979 15.1712ZM42.8116 27.5139C44.0178 28.5798 45.1492 29.6738 46.1965 30.7772C45.1492 31.8806 44.0272 32.9839 42.8116 34.0686C42.8677 32.9933 42.8864 31.9086 42.8864 30.8333C42.8957 29.7112 42.8677 28.6079 42.8116 27.5139ZM52.8821 46.3458C51.2738 48.7769 46.6266 49.2912 40.5955 47.7764C41.5025 44.7842 42.1571 41.39 42.5311 37.8462C44.5414 36.1911 46.3741 34.4893 48.0105 32.7595C49.8151 34.8821 51.227 36.9672 52.1808 38.9028C51.1709 39.6789 50.5071 40.8851 50.5071 42.2503C50.5071 43.9707 51.5356 45.4388 53.0036 46.1027C52.9569 46.1868 52.9288 46.271 52.8821 46.3458ZM54.7709 43.8118C54.7615 43.8118 54.7428 43.8118 54.7335 43.8118C53.8826 43.8024 53.1813 43.1105 53.1813 42.2503C53.1813 41.39 53.8826 40.6887 54.7428 40.6887C55.6031 40.6887 56.3044 41.39 56.3044 42.2503C56.3044 43.1105 55.6218 43.8024 54.7709 43.8118Z" fill="#000D2F"/>
<path d="M26.1395 33.2365L24.606 31.8901L26.1395 30.5436C26.6912 30.0574 26.7473 29.2065 26.261 28.6548C25.7748 28.0938 24.9239 28.047 24.3722 28.5332L21.6886 30.8802C21.3988 31.1327 21.2305 31.4973 21.2305 31.8901C21.2305 32.2734 21.3988 32.6474 21.6886 32.8999L24.3722 35.2469C24.6247 35.4713 24.9426 35.5835 25.2512 35.5835C25.6252 35.5835 25.9899 35.4245 26.261 35.1253C26.7566 34.5736 26.7005 33.7321 26.1395 33.2365ZM34.3679 28.5426C33.8069 28.0563 32.9653 28.1125 32.4791 28.6641C31.9929 29.2158 32.049 30.0667 32.6007 30.5529L34.1342 31.8994L32.6007 33.2459C32.0396 33.7321 31.9929 34.583 32.4791 35.1347C32.7409 35.4339 33.115 35.5929 33.489 35.5929C33.7975 35.5929 34.1155 35.4806 34.3679 35.2562L37.0515 32.9093C37.3414 32.6568 37.5097 32.2921 37.5097 31.8994C37.5097 31.516 37.3414 31.142 37.0515 30.8896L34.3679 28.5426ZM31.2355 24.1291C30.5062 23.9608 29.7955 24.4003 29.6179 25.1203L26.5229 38.0614C26.3545 38.7814 26.794 39.5014 27.514 39.679C27.6169 39.7071 27.7197 39.7164 27.8226 39.7164C28.4304 39.7164 28.982 39.305 29.1223 38.6879L32.2173 25.7468C32.395 25.0174 31.9555 24.2974 31.2355 24.1291Z" fill="#000D2F"/>
</g>
<defs>
<clipPath id="clip0_723_147">
<rect width="59.8432" height="59.8432" fill="white" transform="translate(0.874512 0.902344)"/>
</clipPath>
</defs>
</svg>
