<svg width="61" height="61" viewBox="0 0 61 61" fill="none" xmlns="http://www.w3.org/2000/svg">
<g clip-path="url(#clip0_723_162)">
<path d="M20.111 0.21419C13.4823 0.376344 7.11551 3.86846 3.57226 10.0322C0.164803 15.9597 0.0593501 23.2599 3.3385 29.2592L3.51382 29.6098C3.51035 29.7871 3.51382 29.9577 3.51382 30.1358C3.51382 30.3101 3.51049 30.4882 3.51382 30.6618L3.3385 31.0124C0.0593501 37.0117 0.164803 44.3119 3.57226 50.2394C7.62169 57.2837 15.3789 60.8657 22.9745 59.9405C25.5064 59.6321 28.0484 58.8358 30.3965 57.486L30.7472 57.2522L31.1562 57.486C33.5043 58.8358 35.9879 59.6321 38.5198 59.9405C46.1154 60.8657 53.8726 57.2837 57.922 50.2394C61.3295 44.3119 61.435 37.0117 58.1558 31.0124L57.7467 30.2527C57.7469 30.214 57.7467 30.1745 57.7467 30.1358C57.7467 30.0963 57.7469 30.0583 57.7467 30.0189L58.1558 29.2592C61.435 23.2599 61.3295 15.9597 57.922 10.0322C53.8726 2.98792 46.1154 -0.594067 38.5198 0.331071C35.9879 0.639451 33.5043 1.43574 31.1562 2.78558L30.7472 3.01934L30.3965 2.78558C28.0484 1.43574 25.5064 0.639451 22.9745 0.331071C22.0251 0.215429 21.0579 0.191025 20.111 0.21419ZM21.046 2.08429C23.0536 2.1337 25.0614 2.5545 27.007 3.31154C24.5567 3.64482 22.1956 4.29159 19.9941 5.24008C19.9737 5.25869 19.9542 5.27819 19.9356 5.29852C12.9637 8.32598 7.52285 14.1942 5.03328 21.4281C5.0252 21.4516 4.98285 21.4631 4.97483 21.4866C4.92512 21.5586 4.88578 21.6373 4.85795 21.7203C4.81395 21.8535 4.78304 21.9954 4.74107 22.1294C4.546 22.7554 4.36495 23.4131 4.21511 24.058C4.08481 24.6182 3.95912 25.1802 3.86446 25.7527C2.15287 20.9173 2.60396 15.498 5.2086 10.9673C8.57428 5.11247 14.7474 1.92926 21.046 2.08429ZM40.4483 2.08429C46.7642 1.92926 52.9785 5.11247 56.3441 10.9673C59.0561 15.6847 59.3634 21.352 57.3961 26.3371C57.3166 25.7918 57.2743 25.2355 57.1623 24.7008C56.7938 22.9141 56.2299 21.2004 55.526 19.558C55.5014 19.5007 55.4925 19.4399 55.4675 19.3827C52.4403 12.4533 46.5878 7.03004 39.3964 4.5388C39.3778 4.51846 39.3583 4.49897 39.3379 4.48036C39.3208 4.47448 39.2966 4.4862 39.2795 4.48036C39.2074 4.43064 39.1287 4.3913 39.0457 4.36347C37.5785 3.8808 36.0537 3.53704 34.4874 3.31154C36.4351 2.55449 38.4351 2.13371 40.4483 2.08429ZM30.2796 4.88944C30.397 4.88781 30.5125 4.88944 30.6303 4.88944C31.4979 4.88944 32.3558 4.97814 33.2017 5.06476C33.5083 5.10591 33.8335 5.12857 34.1367 5.18164C34.1966 5.19007 34.2522 5.23123 34.312 5.24008C35.3875 5.43651 36.4315 5.70291 37.4678 5.99981L34.2536 14.7075C33.0872 14.4379 31.8826 14.2399 30.6303 14.2399C29.7632 14.2399 28.9336 14.3176 28.1173 14.4737C27.2925 14.6031 26.4976 14.8083 25.7213 15.0581L21.7473 6.58422C23.1315 6.05853 24.588 5.64926 26.0719 5.35697C27.4387 5.10509 28.8475 4.90933 30.2796 4.88944ZM39.2795 6.46734C45.5403 8.77178 50.6565 13.5048 53.4806 19.4996L45.0651 23.4151C43.2993 19.6058 40.0481 16.6718 36.0653 15.2334L39.2795 6.46734ZM20.0525 7.28551L23.968 15.7594C20.1624 17.5108 17.1808 20.6782 15.7279 24.6424L6.96182 21.4281C9.29123 15.1715 14.037 10.0863 20.0525 7.28551ZM30.6303 16.11C31.3266 16.11 32.0146 16.1854 32.6757 16.2854C32.7358 16.2939 32.7911 16.3346 32.851 16.3438C33.4479 16.4422 34.0299 16.527 34.6042 16.6944C34.6404 16.7049 34.6851 16.6838 34.7211 16.6944C34.7397 16.7148 34.7592 16.7343 34.7796 16.7529C38.8585 17.9846 42.1099 20.9569 43.6625 24.8761C43.6619 24.8956 43.6619 24.9151 43.6625 24.9346C43.7908 25.2622 43.9091 25.5884 44.0132 25.9281C44.1483 26.3692 44.2715 26.8712 44.3638 27.3306C44.3755 27.3905 44.4113 27.4458 44.4223 27.506C44.4832 27.8304 44.5005 28.167 44.5391 28.4995C44.5994 29.0413 44.656 29.5804 44.656 30.1358C44.656 30.8321 44.5806 31.5201 44.4807 32.1812C44.3808 32.8423 44.2562 33.4765 44.0716 34.1098C44.0692 34.1487 44.0692 34.1877 44.0716 34.2266C44.0595 34.2674 44.0256 34.3029 44.0132 34.3435C44.0126 34.363 44.0126 34.3825 44.0132 34.402C42.7873 38.3472 39.8915 41.535 36.1237 43.1096C36.0238 43.1133 35.9251 43.1331 35.8315 43.1681C35.7912 43.1848 35.7522 43.2043 35.7146 43.2265C34.5271 43.6837 33.2873 43.983 31.9744 44.1031C31.5357 44.1432 31.0807 44.1615 30.6303 44.1615C29.2392 44.1615 27.9245 43.9469 26.6563 43.5771C26.5627 43.5422 26.464 43.5224 26.3641 43.5187C22.3443 42.2633 19.1346 39.2742 17.598 35.3954C17.5753 35.3381 17.5616 35.2778 17.5396 35.2201C17.4258 34.9248 17.341 34.6466 17.2474 34.3435C17.1122 33.9024 16.989 33.4589 16.8967 32.9994C16.8811 32.9218 16.8526 32.8437 16.8383 32.7656C16.7987 32.5525 16.7513 32.3394 16.7214 32.1228C16.6924 31.9106 16.6826 31.6952 16.663 31.4799C16.6229 31.0423 16.6045 30.5874 16.6045 30.1358C16.6045 29.5834 16.6614 29.0924 16.7214 28.5579C16.7656 28.1642 16.8215 27.7715 16.8967 27.3891C16.9155 27.2937 16.9345 27.1915 16.9552 27.0969C17.0273 26.7681 17.0965 26.4204 17.1889 26.1034C17.1895 26.0839 17.1895 26.0644 17.1889 26.0449C18.4263 21.8767 21.5223 18.5775 25.5459 17.0451C26.2615 16.7695 27.0051 16.5579 27.7667 16.4022C28.6856 16.2176 29.6512 16.11 30.6303 16.11ZM54.1818 21.2528C54.4447 21.9449 54.675 22.6969 54.8831 23.4151C55.0913 24.1334 55.263 24.8355 55.4091 25.5774C55.5552 26.3193 55.683 27.0935 55.7597 27.8566C55.8365 28.6197 55.8766 29.3541 55.8766 30.1358C55.8766 32.514 55.392 34.7282 54.7663 36.9149L46.117 33.7591C46.2516 33.1727 46.2824 32.5574 46.3508 31.9475C46.4176 31.3517 46.5261 30.7503 46.5261 30.1358C46.5261 29.578 46.4783 29.0354 46.4092 28.4995C46.3793 28.202 46.3382 27.9151 46.2924 27.6228C46.2853 27.5857 46.2997 27.543 46.2924 27.506C46.1603 26.7027 46.0128 25.9251 45.7664 25.1683L54.1818 21.2528ZM6.49429 23.2982L15.1435 26.454C14.8656 27.6373 14.7344 28.8637 14.7344 30.1358C14.7344 30.569 14.7446 31.0067 14.7929 31.4215C14.8908 32.6622 15.1312 33.903 15.4941 35.0448L7.0787 38.9603C6.55267 37.5757 6.14363 36.1635 5.85144 34.6942C5.70535 33.9595 5.5775 33.231 5.5008 32.4734C5.45672 32.038 5.46162 31.5726 5.44236 31.1293C5.42922 30.7969 5.38392 30.4712 5.38392 30.1358C5.38392 29.7983 5.42392 29.4754 5.44236 29.1423C5.45239 28.8887 5.42481 28.6342 5.44236 28.3826C5.45193 28.2815 5.48975 28.1911 5.5008 28.0904C5.55329 27.6118 5.59388 27.158 5.67612 26.6878C5.87523 25.5496 6.18036 24.3928 6.49429 23.2982ZM57.4545 33.9929C59.3894 38.96 59.0428 44.61 56.3441 49.3043C51.8962 57.0417 42.4986 60.1255 34.4289 56.96C44.6529 55.4986 53.0623 48.2903 56.2857 38.7266C56.3354 38.6545 56.3748 38.5758 56.4026 38.4928C56.4355 38.3926 56.4877 38.3011 56.5195 38.2006C56.5918 37.9695 56.6285 37.733 56.6948 37.4993C56.8736 36.8769 57.0283 36.266 57.1623 35.6292C57.2769 35.0847 57.374 34.5485 57.4545 33.9929ZM3.86446 34.5188C4.07015 35.78 4.36608 37.0028 4.74107 38.2006C5.00832 39.0476 5.33194 39.8451 5.67612 40.6551C5.70395 40.7381 5.74329 40.8168 5.793 40.8889C8.85902 47.9109 14.7758 53.4037 22.0979 55.8497C22.1165 55.87 22.136 55.8895 22.1564 55.9081C22.1742 55.914 22.197 55.9023 22.2148 55.9081C22.2559 55.9216 22.2905 55.9532 22.3317 55.9665C22.5764 56.0456 22.8439 56.0697 23.0914 56.1419C23.5985 56.2896 24.0918 56.4327 24.6109 56.551C25.3958 56.7314 26.1984 56.9085 27.007 57.0185C18.9623 60.1374 9.64332 57.0188 5.2086 49.3043C2.60396 44.7735 2.15287 39.3543 3.86446 34.5188ZM45.5911 35.5708L54.2987 38.785C51.9813 45.0812 47.251 50.2306 41.208 53.0445L37.3509 44.5706C41.1725 42.7963 44.161 39.5744 45.5911 35.5708ZM16.1954 36.798C17.9428 40.6225 21.1591 43.5803 25.1369 45.0382L21.9226 53.8042C15.6482 51.4765 10.5249 46.7451 7.72154 40.7135L16.1954 36.798ZM35.5977 45.2719L39.5132 53.6874C36.7445 54.7393 33.7564 55.3821 30.6303 55.3821C30.5114 55.3821 30.3979 55.3845 30.2796 55.3821C29.7491 55.3748 29.2241 55.3638 28.7017 55.3237C27.0179 55.1499 25.3809 54.7272 23.7927 54.2718L26.9485 45.6226C28.1317 45.9004 29.3582 46.0316 30.6303 46.0316C32.3702 46.0316 34.035 45.7808 35.5977 45.2719Z" fill="#000D2F"/>
</g>
<defs>
<clipPath id="clip0_723_162">
<rect width="59.8432" height="59.8432" fill="white" transform="translate(0.825928 0.214355)"/>
</clipPath>
</defs>
</svg>
