<svg width="2560" height="1108" viewBox="0 0 2560 1108" fill="none" xmlns="http://www.w3.org/2000/svg">
<g opacity="0.2">
<path d="M442.599 218.363L408.151 190.593" stroke="#00F0FF" stroke-opacity="0.62" stroke-width="5" stroke-miterlimit="10" stroke-linecap="round" stroke-linejoin="round"/>
<path d="M409.06 219.334L441.467 189.816" stroke="#00F0FF" stroke-opacity="0.62" stroke-width="5" stroke-miterlimit="10" stroke-linecap="round" stroke-linejoin="round"/>
<path d="M1725.35 218.363L1690.91 190.593" stroke="#00F0FF" stroke-opacity="0.62" stroke-width="5" stroke-miterlimit="10" stroke-linecap="round" stroke-linejoin="round"/>
<path d="M1691.82 219.334L1724.22 189.816" stroke="#00F0FF" stroke-opacity="0.62" stroke-width="5" stroke-miterlimit="10" stroke-linecap="round" stroke-linejoin="round"/>
<path d="M482.258 644.621L447.811 616.852" stroke="#00F0FF" stroke-opacity="0.62" stroke-width="5" stroke-miterlimit="10" stroke-linecap="round" stroke-linejoin="round"/>
<path d="M448.942 645.398L481.35 615.88" stroke="#00F0FF" stroke-opacity="0.62" stroke-width="5" stroke-miterlimit="10" stroke-linecap="round" stroke-linejoin="round"/>
<path d="M61.6435 882.705L27.1963 854.935" stroke="#00F0FF" stroke-opacity="0.62" stroke-width="5" stroke-miterlimit="10" stroke-linecap="round" stroke-linejoin="round"/>
<path d="M28.3281 883.482L60.7357 853.964" stroke="#00F0FF" stroke-opacity="0.62" stroke-width="5" stroke-miterlimit="10" stroke-linecap="round" stroke-linejoin="round"/>
<path d="M46.6826 177.969L12.0088 150.005" stroke="#00F0FF" stroke-opacity="0.62" stroke-width="5" stroke-miterlimit="10" stroke-linecap="round" stroke-linejoin="round"/>
<path d="M13.1406 178.747L45.5482 149.229" stroke="#00F0FF" stroke-opacity="0.62" stroke-width="5" stroke-miterlimit="10" stroke-linecap="round" stroke-linejoin="round"/>
<path d="M1329.44 177.969L1294.76 150.005" stroke="#00F0FF" stroke-opacity="0.62" stroke-width="5" stroke-miterlimit="10" stroke-linecap="round" stroke-linejoin="round"/>
<path d="M1295.9 178.747L1328.3 149.229" stroke="#00F0FF" stroke-opacity="0.62" stroke-width="5" stroke-miterlimit="10" stroke-linecap="round" stroke-linejoin="round"/>
<path d="M1275.9 217.779L1241.46 190.009" stroke="#00F0FF" stroke-opacity="0.62" stroke-width="5" stroke-miterlimit="10" stroke-linecap="round" stroke-linejoin="round"/>
<path d="M1242.36 218.556L1274.77 189.038" stroke="#00F0FF" stroke-opacity="0.62" stroke-width="5" stroke-miterlimit="10" stroke-linecap="round" stroke-linejoin="round"/>
<path d="M2558.66 217.779L2524.21 190.009" stroke="#00F0FF" stroke-opacity="0.62" stroke-width="5" stroke-miterlimit="10" stroke-linecap="round" stroke-linejoin="round"/>
<path d="M2525.12 218.556L2557.53 189.038" stroke="#00F0FF" stroke-opacity="0.62" stroke-width="5" stroke-miterlimit="10" stroke-linecap="round" stroke-linejoin="round"/>
<path d="M868.202 368.864L833.528 341.094" stroke="#00F0FF" stroke-opacity="0.62" stroke-width="5" stroke-miterlimit="10" stroke-linecap="round" stroke-linejoin="round"/>
<path d="M834.66 369.64L867.068 340.123" stroke="#00F0FF" stroke-opacity="0.62" stroke-width="5" stroke-miterlimit="10" stroke-linecap="round" stroke-linejoin="round"/>
<path d="M2150.96 368.864L2116.28 341.094" stroke="#00F0FF" stroke-opacity="0.62" stroke-width="5" stroke-miterlimit="10" stroke-linecap="round" stroke-linejoin="round"/>
<path d="M2117.42 369.641L2149.82 340.123" stroke="#00F0FF" stroke-opacity="0.62" stroke-width="5" stroke-miterlimit="10" stroke-linecap="round" stroke-linejoin="round"/>
<path d="M2319.34 698.607L2284.89 670.837" stroke="#00F0FF" stroke-opacity="0.62" stroke-width="5" stroke-miterlimit="10" stroke-linecap="round" stroke-linejoin="round"/>
<path d="M2286.03 699.578L2318.43 669.866" stroke="#00F0FF" stroke-opacity="0.62" stroke-width="5" stroke-miterlimit="10" stroke-linecap="round" stroke-linejoin="round"/>
<path d="M1009.84 967.18L975.169 939.41" stroke="#00F0FF" stroke-opacity="0.62" stroke-width="5" stroke-miterlimit="10" stroke-linecap="round" stroke-linejoin="round"/>
<path d="M976.301 968.151L1008.71 938.439" stroke="#00F0FF" stroke-opacity="0.62" stroke-width="5" stroke-miterlimit="10" stroke-linecap="round" stroke-linejoin="round"/>
<path d="M2292.6 967.18L2257.92 939.41" stroke="#00F0FF" stroke-opacity="0.62" stroke-width="5" stroke-miterlimit="10" stroke-linecap="round" stroke-linejoin="round"/>
<path d="M2259.06 968.151L2291.46 938.439" stroke="#00F0FF" stroke-opacity="0.62" stroke-width="5" stroke-miterlimit="10" stroke-linecap="round" stroke-linejoin="round"/>
<path d="M699.271 262.668L675.539 227.889L652.255 262.668L628.747 297.64H675.763H722.778L699.271 262.668Z" stroke="#00F0FF" stroke-opacity="0.62" stroke-width="5" stroke-miterlimit="10" stroke-linecap="round" stroke-linejoin="round"/>
<path d="M1982.03 262.668L1958.29 227.889L1935.01 262.668L1911.5 297.64H1958.52H2005.53L1982.03 262.668Z" stroke="#00F0FF" stroke-opacity="0.62" stroke-width="5" stroke-miterlimit="10" stroke-linecap="round" stroke-linejoin="round"/>
<path d="M2176.75 826.19L2152.9 790.713L2129.04 826.19L2105.18 861.667H2152.9H2200.61L2176.75 826.19Z" stroke="#00F0FF" stroke-opacity="0.62" stroke-width="5" stroke-miterlimit="10" stroke-linecap="round" stroke-linejoin="round"/>
<path d="M2333.01 555.698L2345.17 516.517L2299.67 527.132L2253.95 537.555L2287.28 566.121L2320.84 594.687L2333.01 555.698Z" stroke="#00F0FF" stroke-opacity="0.62" stroke-width="5" stroke-miterlimit="10" stroke-linecap="round" stroke-linejoin="round"/>
<path d="M268.526 98.7044L280.689 59.5229L234.964 70.1386L189.465 80.5613L222.801 109.127L256.363 137.693L268.526 98.7044Z" stroke="#00F0FF" stroke-opacity="0.62" stroke-width="5" stroke-miterlimit="10" stroke-linecap="round" stroke-linejoin="round"/>
<path d="M1551.28 98.7044L1563.45 59.5229L1517.72 70.1386L1472.22 80.5613L1505.56 109.127L1539.12 137.693L1551.28 98.7044Z" stroke="#00F0FF" stroke-opacity="0.62" stroke-width="5" stroke-miterlimit="10" stroke-linecap="round" stroke-linejoin="round"/>
<path d="M236.247 948.856L248.41 909.771L202.91 920.361L157.186 930.758L190.747 959.253L224.083 987.941L236.247 948.856Z" stroke="#00F0FF" stroke-opacity="0.62" stroke-width="5" stroke-miterlimit="10" stroke-linecap="round" stroke-linejoin="round"/>
<path d="M1098.09 142.454L1139.6 121.961L1098.09 101.663L1056.8 81.1694V121.961V162.947L1098.09 142.454Z" stroke="#00F0FF" stroke-opacity="0.62" stroke-width="5" stroke-miterlimit="10" stroke-linecap="round" stroke-linejoin="round"/>
<path d="M2380.84 142.454L2422.36 121.961L2380.84 101.663L2339.55 81.1694V121.961V162.947L2380.84 142.454Z" stroke="#00F0FF" stroke-opacity="0.62" stroke-width="5" stroke-miterlimit="10" stroke-linecap="round" stroke-linejoin="round"/>
<path d="M234.965 550.19L276.48 529.745L234.965 509.301L193.677 488.856V529.745V570.634L234.965 550.19Z" stroke="#00F0FF" stroke-opacity="0.62" stroke-width="5" stroke-miterlimit="10" stroke-linecap="round" stroke-linejoin="round"/>
<path d="M597.871 138.295C597.871 155.267 581.577 168.961 561.381 168.961C541.186 168.961 524.892 155.267 524.892 138.295C524.892 121.322 541.186 107.628 561.381 107.628C581.577 107.628 597.871 121.515 597.871 138.295Z" stroke="#00F0FF" stroke-opacity="0.62" stroke-width="5" stroke-miterlimit="10" stroke-linecap="round" stroke-linejoin="round"/>
<path d="M1880.63 138.295C1880.63 155.267 1864.33 168.961 1844.14 168.961C1823.94 168.961 1807.65 155.267 1807.65 138.295C1807.65 121.322 1823.94 107.628 1844.14 107.628C1864.33 107.628 1880.63 121.515 1880.63 138.295Z" stroke="#00F0FF" stroke-opacity="0.62" stroke-width="5" stroke-miterlimit="10" stroke-linecap="round" stroke-linejoin="round"/>
<path d="M620.326 1049.88C620.326 1066.85 604.345 1080.54 584.538 1080.54C564.731 1080.54 548.75 1066.85 548.75 1049.88C548.75 1032.9 564.731 1019.21 584.538 1019.21C604.12 1019.21 620.326 1032.9 620.326 1049.88Z" stroke="#00F0FF" stroke-opacity="0.62" stroke-width="5" stroke-miterlimit="10" stroke-linecap="round" stroke-linejoin="round"/>
<path d="M1903.08 1049.88C1903.08 1066.85 1887.1 1080.54 1867.29 1080.54C1847.49 1080.54 1831.51 1066.85 1831.51 1049.88C1831.51 1032.9 1847.49 1019.21 1867.29 1019.21C1886.88 1019.21 1903.08 1032.9 1903.08 1049.88Z" stroke="#00F0FF" stroke-opacity="0.62" stroke-width="5" stroke-miterlimit="10" stroke-linecap="round" stroke-linejoin="round"/>
<path d="M717.164 1003.58C717.164 986.935 733.145 973.51 752.952 973.51C772.759 973.51 788.74 986.935 788.74 1003.58" stroke="#00F0FF" stroke-opacity="0.62" stroke-width="5" stroke-miterlimit="10" stroke-linecap="round" stroke-linejoin="round"/>
<path d="M1999.92 1003.58C1999.92 986.935 2015.9 973.51 2035.71 973.51C2055.52 973.51 2071.5 986.935 2071.5 1003.58" stroke="#00F0FF" stroke-opacity="0.62" stroke-width="5" stroke-miterlimit="10" stroke-linecap="round" stroke-linejoin="round"/>
<path d="M50.5244 278.399C50.5244 261.093 66.6064 247.131 86.3124 247.131C106.019 247.131 122.1 261.093 122.1 278.399" stroke="#00F0FF" stroke-opacity="0.62" stroke-width="5" stroke-miterlimit="10" stroke-linecap="round" stroke-linejoin="round"/>
<path d="M1333.28 278.399C1333.28 261.093 1349.36 247.131 1369.07 247.131C1388.77 247.131 1404.86 261.093 1404.86 278.399" stroke="#00F0FF" stroke-opacity="0.62" stroke-width="5" stroke-miterlimit="10" stroke-linecap="round" stroke-linejoin="round"/>
<path d="M2241.31 328.909C2221.9 328.909 2206.23 315.128 2206.23 298.242C2206.23 281.356 2221.9 267.575 2241.31 267.575" stroke="#00F0FF" stroke-opacity="0.62" stroke-width="5" stroke-miterlimit="10" stroke-linecap="round" stroke-linejoin="round"/>
<path d="M89.8207 1050.48C70.4018 1050.48 54.7344 1036.43 54.7344 1019.21C54.7344 1001.99 70.4018 987.941 89.8207 987.941" stroke="#00F0FF" stroke-opacity="0.62" stroke-width="5" stroke-miterlimit="10" stroke-linecap="round" stroke-linejoin="round"/>
<path d="M477.175 66.7381C457.756 66.7381 442.089 52.9575 442.089 36.0715C442.089 19.1854 457.756 5.40479 477.175 5.40479" stroke="#00F0FF" stroke-opacity="0.62" stroke-width="5" stroke-miterlimit="10" stroke-linecap="round" stroke-linejoin="round"/>
<path d="M1759.93 66.7381C1740.51 66.7381 1724.84 52.9575 1724.84 36.0715C1724.84 19.1854 1740.51 5.40479 1759.93 5.40479" stroke="#00F0FF" stroke-opacity="0.62" stroke-width="5" stroke-miterlimit="10" stroke-linecap="round" stroke-linejoin="round"/>
<path d="M108.066 725.17C108.066 742.143 92.0855 755.837 72.2783 755.837C52.4711 755.837 36.4902 742.143 36.4902 725.17C36.4902 708.197 52.4711 694.503 72.2783 694.503C92.0855 694.503 108.066 708.197 108.066 725.17Z" stroke="#00F0FF" stroke-opacity="0.62" stroke-width="5" stroke-miterlimit="10" stroke-linecap="round" stroke-linejoin="round"/>
<path d="M2503.76 760.046C2503.76 777.018 2487.46 790.712 2467.27 790.712C2447.07 790.712 2430.78 777.018 2430.78 760.046C2430.78 743.073 2447.07 729.379 2467.27 729.379C2487.46 729.379 2503.76 743.073 2503.76 760.046Z" stroke="#00F0FF" stroke-opacity="0.62" stroke-width="5" stroke-miterlimit="10" stroke-linecap="round" stroke-linejoin="round"/>
<path d="M1192.93 267.575H1121.36V328.909H1192.93V267.575Z" stroke="#00F0FF" stroke-opacity="0.62" stroke-width="5" stroke-miterlimit="10" stroke-linecap="round" stroke-linejoin="round"/>
<path d="M2475.69 267.575H2404.12V328.909H2475.69V267.575Z" stroke="#00F0FF" stroke-opacity="0.62" stroke-width="5" stroke-miterlimit="10" stroke-linecap="round" stroke-linejoin="round"/>
<path d="M381.739 297.641H310.163V360.177H381.739V297.641Z" stroke="#00F0FF" stroke-opacity="0.62" stroke-width="5" stroke-miterlimit="10" stroke-linecap="round" stroke-linejoin="round"/>
<path d="M1192.93 987.941H1121.36V1050.48H1192.93V987.941Z" stroke="#00F0FF" stroke-opacity="0.62" stroke-width="5" stroke-miterlimit="10" stroke-linecap="round" stroke-linejoin="round"/>
<path d="M2475.69 987.941H2404.12V1050.48H2475.69V987.941Z" stroke="#00F0FF" stroke-opacity="0.62" stroke-width="5" stroke-miterlimit="10" stroke-linecap="round" stroke-linejoin="round"/>
<path d="M895.403 5.40479H823.827V66.7381H895.403V5.40479Z" stroke="#00F0FF" stroke-opacity="0.62" stroke-width="5" stroke-miterlimit="10" stroke-linecap="round" stroke-linejoin="round"/>
<path d="M2178.16 5.40479H2106.58V66.7381H2178.16V5.40479Z" stroke="#00F0FF" stroke-opacity="0.62" stroke-width="5" stroke-miterlimit="10" stroke-linecap="round" stroke-linejoin="round"/>
<path d="M2002.97 630.639C1987.33 630.639 1990.05 606.753 1970.11 606.753" stroke="#00F0FF" stroke-opacity="0.62" stroke-width="5" stroke-miterlimit="10" stroke-linecap="round" stroke-linejoin="round"/>
<path d="M2068.92 630.639C2053.28 630.639 2056 606.753 2036.06 606.753" stroke="#00F0FF" stroke-opacity="0.62" stroke-width="5" stroke-miterlimit="10" stroke-linecap="round" stroke-linejoin="round"/>
<path d="M2002.97 630.639C2018.61 630.639 2015.89 606.753 2035.83 606.753" stroke="#00F0FF" stroke-opacity="0.62" stroke-width="5" stroke-miterlimit="10" stroke-linecap="round" stroke-linejoin="round"/>
<path d="M2068.92 630.639C2084.56 630.639 2081.84 606.753 2101.78 606.753" stroke="#00F0FF" stroke-opacity="0.62" stroke-width="5" stroke-miterlimit="10" stroke-linecap="round" stroke-linejoin="round"/>
<path d="M907.865 1073.99C892.227 1073.99 894.947 1050.1 875.004 1050.1" stroke="#00F0FF" stroke-opacity="0.62" stroke-width="5" stroke-miterlimit="10" stroke-linecap="round" stroke-linejoin="round"/>
<path d="M973.813 1073.99C958.176 1073.99 960.895 1050.1 940.952 1050.1" stroke="#00F0FF" stroke-opacity="0.62" stroke-width="5" stroke-miterlimit="10" stroke-linecap="round" stroke-linejoin="round"/>
<path d="M907.864 1073.99C923.501 1073.99 920.782 1050.1 940.725 1050.1" stroke="#00F0FF" stroke-opacity="0.62" stroke-width="5" stroke-miterlimit="10" stroke-linecap="round" stroke-linejoin="round"/>
<path d="M973.813 1073.99C989.451 1073.99 986.731 1050.1 1006.67 1050.1" stroke="#00F0FF" stroke-opacity="0.62" stroke-width="5" stroke-miterlimit="10" stroke-linecap="round" stroke-linejoin="round"/>
<path d="M2190.62 1073.99C2174.98 1073.99 2177.7 1050.1 2157.76 1050.1" stroke="#00F0FF" stroke-opacity="0.62" stroke-width="5" stroke-miterlimit="10" stroke-linecap="round" stroke-linejoin="round"/>
<path d="M2256.57 1073.99C2240.93 1073.99 2243.65 1050.1 2223.71 1050.1" stroke="#00F0FF" stroke-opacity="0.62" stroke-width="5" stroke-miterlimit="10" stroke-linecap="round" stroke-linejoin="round"/>
<path d="M2190.62 1073.99C2206.26 1073.99 2203.54 1050.1 2223.48 1050.1" stroke="#00F0FF" stroke-opacity="0.62" stroke-width="5" stroke-miterlimit="10" stroke-linecap="round" stroke-linejoin="round"/>
<path d="M2256.57 1073.99C2272.21 1073.99 2269.49 1050.1 2289.43 1050.1" stroke="#00F0FF" stroke-opacity="0.62" stroke-width="5" stroke-miterlimit="10" stroke-linecap="round" stroke-linejoin="round"/>
<path d="M997.833 434.89C982.196 434.89 984.916 411.004 964.973 411.004" stroke="#00F0FF" stroke-opacity="0.62" stroke-width="5" stroke-miterlimit="10" stroke-linecap="round" stroke-linejoin="round"/>
<path d="M1063.55 434.89C1047.92 434.89 1050.64 411.004 1030.69 411.004" stroke="#00F0FF" stroke-opacity="0.62" stroke-width="5" stroke-miterlimit="10" stroke-linecap="round" stroke-linejoin="round"/>
<path d="M997.833 434.89C1013.47 434.89 1010.75 411.004 1030.69 411.004" stroke="#00F0FF" stroke-opacity="0.62" stroke-width="5" stroke-miterlimit="10" stroke-linecap="round" stroke-linejoin="round"/>
<path d="M1063.55 434.89C1079.19 434.89 1076.47 411.004 1096.42 411.004" stroke="#00F0FF" stroke-opacity="0.62" stroke-width="5" stroke-miterlimit="10" stroke-linecap="round" stroke-linejoin="round"/>
<path d="M2280.59 434.89C2264.95 434.89 2267.67 411.004 2247.73 411.004" stroke="#00F0FF" stroke-opacity="0.62" stroke-width="5" stroke-miterlimit="10" stroke-linecap="round" stroke-linejoin="round"/>
<path d="M2346.31 434.89C2330.67 434.89 2333.39 411.004 2313.45 411.004" stroke="#00F0FF" stroke-opacity="0.62" stroke-width="5" stroke-miterlimit="10" stroke-linecap="round" stroke-linejoin="round"/>
<path d="M2280.59 434.89C2296.23 434.89 2293.51 411.004 2313.45 411.004" stroke="#00F0FF" stroke-opacity="0.62" stroke-width="5" stroke-miterlimit="10" stroke-linecap="round" stroke-linejoin="round"/>
<path d="M2346.31 434.89C2361.95 434.89 2359.23 411.004 2379.17 411.004" stroke="#00F0FF" stroke-opacity="0.62" stroke-width="5" stroke-miterlimit="10" stroke-linecap="round" stroke-linejoin="round"/>
<path d="M81.5834 406.15C65.9462 406.15 68.6658 382.264 48.7227 382.264" stroke="#00F0FF" stroke-opacity="0.62" stroke-width="5" stroke-miterlimit="10" stroke-linecap="round" stroke-linejoin="round"/>
<path d="M147.304 406.15C131.667 406.15 134.386 382.264 114.443 382.264" stroke="#00F0FF" stroke-opacity="0.62" stroke-width="5" stroke-miterlimit="10" stroke-linecap="round" stroke-linejoin="round"/>
<path d="M81.582 406.15C97.2192 406.15 94.4997 382.264 114.443 382.264" stroke="#00F0FF" stroke-opacity="0.62" stroke-width="5" stroke-miterlimit="10" stroke-linecap="round" stroke-linejoin="round"/>
<path d="M147.303 406.15C162.94 406.15 160.22 382.264 180.164 382.264" stroke="#00F0FF" stroke-opacity="0.62" stroke-width="5" stroke-miterlimit="10" stroke-linecap="round" stroke-linejoin="round"/>
<path d="M725.654 87.4751C725.654 100.875 697.779 98.5442 697.779 115.633" stroke="#00F0FF" stroke-opacity="0.62" stroke-width="5" stroke-miterlimit="10" stroke-linecap="round" stroke-linejoin="round"/>
<path d="M725.654 31.1582C725.654 44.5577 697.779 42.2273 697.779 59.3165" stroke="#00F0FF" stroke-opacity="0.62" stroke-width="5" stroke-miterlimit="10" stroke-linecap="round" stroke-linejoin="round"/>
<path d="M725.654 87.4737C725.654 74.0743 697.779 76.4046 697.779 59.3154" stroke="#00F0FF" stroke-opacity="0.62" stroke-width="5" stroke-miterlimit="10" stroke-linecap="round" stroke-linejoin="round"/>
<path d="M725.655 31.1583C725.655 17.7588 697.78 20.0892 697.78 3" stroke="#00F0FF" stroke-opacity="0.62" stroke-width="5" stroke-miterlimit="10" stroke-linecap="round" stroke-linejoin="round"/>
<path d="M2008.41 87.4751C2008.41 100.875 1980.54 98.5442 1980.54 115.633" stroke="#00F0FF" stroke-opacity="0.62" stroke-width="5" stroke-miterlimit="10" stroke-linecap="round" stroke-linejoin="round"/>
<path d="M2008.41 31.1582C2008.41 44.5577 1980.54 42.2273 1980.54 59.3165" stroke="#00F0FF" stroke-opacity="0.62" stroke-width="5" stroke-miterlimit="10" stroke-linecap="round" stroke-linejoin="round"/>
<path d="M2008.41 87.4737C2008.41 74.0743 1980.54 76.4046 1980.54 59.3154" stroke="#00F0FF" stroke-opacity="0.62" stroke-width="5" stroke-miterlimit="10" stroke-linecap="round" stroke-linejoin="round"/>
<path d="M2008.41 31.1583C2008.41 17.7588 1980.54 20.0892 1980.54 3" stroke="#00F0FF" stroke-opacity="0.62" stroke-width="5" stroke-miterlimit="10" stroke-linecap="round" stroke-linejoin="round"/>
<path d="M523.729 382.846C523.729 396.245 495.854 393.915 495.854 411.004" stroke="#00F0FF" stroke-opacity="0.62" stroke-width="5" stroke-miterlimit="10" stroke-linecap="round" stroke-linejoin="round"/>
<path d="M523.729 326.335C523.729 339.734 495.854 337.404 495.854 354.493" stroke="#00F0FF" stroke-opacity="0.62" stroke-width="5" stroke-miterlimit="10" stroke-linecap="round" stroke-linejoin="round"/>
<path d="M523.729 382.846C523.729 369.446 495.854 371.777 495.854 354.688" stroke="#00F0FF" stroke-opacity="0.62" stroke-width="5" stroke-miterlimit="10" stroke-linecap="round" stroke-linejoin="round"/>
<path d="M523.729 326.335C523.729 312.936 495.854 315.266 495.854 298.177" stroke="#00F0FF" stroke-opacity="0.62" stroke-width="5" stroke-miterlimit="10" stroke-linecap="round" stroke-linejoin="round"/>
<path d="M1806.49 382.846C1806.49 396.245 1778.61 393.915 1778.61 411.004" stroke="#00F0FF" stroke-opacity="0.62" stroke-width="5" stroke-miterlimit="10" stroke-linecap="round" stroke-linejoin="round"/>
<path d="M1806.49 326.335C1806.49 339.735 1778.61 337.405 1778.61 354.494" stroke="#00F0FF" stroke-opacity="0.62" stroke-width="5" stroke-miterlimit="10" stroke-linecap="round" stroke-linejoin="round"/>
<path d="M1806.49 382.846C1806.49 369.446 1778.61 371.777 1778.61 354.688" stroke="#00F0FF" stroke-opacity="0.62" stroke-width="5" stroke-miterlimit="10" stroke-linecap="round" stroke-linejoin="round"/>
<path d="M1806.49 326.335C1806.49 312.935 1778.61 315.265 1778.61 298.176" stroke="#00F0FF" stroke-opacity="0.62" stroke-width="5" stroke-miterlimit="10" stroke-linecap="round" stroke-linejoin="round"/>
<path d="M2354.01 854.546C2354.01 867.946 2326.14 865.616 2326.14 882.705" stroke="#00F0FF" stroke-opacity="0.62" stroke-width="5" stroke-miterlimit="10" stroke-linecap="round" stroke-linejoin="round"/>
<path d="M2354.01 798.229C2354.01 811.629 2326.14 809.299 2326.14 826.388" stroke="#00F0FF" stroke-opacity="0.62" stroke-width="5" stroke-miterlimit="10" stroke-linecap="round" stroke-linejoin="round"/>
<path d="M2354.01 854.546C2354.01 841.147 2326.14 843.477 2326.14 826.388" stroke="#00F0FF" stroke-opacity="0.62" stroke-width="5" stroke-miterlimit="10" stroke-linecap="round" stroke-linejoin="round"/>
<path d="M2354.01 798.23C2354.01 784.83 2326.14 787.16 2326.14 770.071" stroke="#00F0FF" stroke-opacity="0.62" stroke-width="5" stroke-miterlimit="10" stroke-linecap="round" stroke-linejoin="round"/>
<path d="M2081.32 694.503H2162.72" stroke="#00F0FF" stroke-opacity="0.62" stroke-width="5" stroke-miterlimit="10" stroke-linecap="round" stroke-linejoin="round"/>
<path d="M0 492.464H81.4002" stroke="#00F0FF" stroke-opacity="0.62" stroke-width="5" stroke-miterlimit="10" stroke-linecap="round" stroke-linejoin="round"/>
<path d="M1282.76 492.464H1364.16" stroke="#00F0FF" stroke-opacity="0.62" stroke-width="5" stroke-miterlimit="10" stroke-linecap="round" stroke-linejoin="round"/>
<path d="M805.581 168.961H886.981" stroke="#00F0FF" stroke-opacity="0.62" stroke-width="5" stroke-miterlimit="10" stroke-linecap="round" stroke-linejoin="round"/>
<path d="M2088.34 168.961H2169.74" stroke="#00F0FF" stroke-opacity="0.62" stroke-width="5" stroke-miterlimit="10" stroke-linecap="round" stroke-linejoin="round"/>
<path d="M324.197 1050.48H405.597" stroke="#00F0FF" stroke-opacity="0.62" stroke-width="5" stroke-miterlimit="10" stroke-linecap="round" stroke-linejoin="round"/>
<path d="M1606.95 1050.48H1688.35" stroke="#00F0FF" stroke-opacity="0.62" stroke-width="5" stroke-miterlimit="10" stroke-linecap="round" stroke-linejoin="round"/>
<path d="M57.542 60.7256L115.084 11.4185" stroke="#00F0FF" stroke-opacity="0.62" stroke-width="5" stroke-miterlimit="10" stroke-linecap="round" stroke-linejoin="round"/>
<path d="M1340.3 60.7256L1397.84 11.4185" stroke="#00F0FF" stroke-opacity="0.62" stroke-width="5" stroke-miterlimit="10" stroke-linecap="round" stroke-linejoin="round"/>
<path d="M2449.02 565.824L2506.56 516.517" stroke="#00F0FF" stroke-opacity="0.62" stroke-width="5" stroke-miterlimit="10" stroke-linecap="round" stroke-linejoin="round"/>
<g opacity="0.3">
<path opacity="0.3" d="M751.261 288.855L727.466 253.512L703.67 288.855L679.874 324.199H727.466L775.057 324.005L751.261 288.855Z" stroke="#00F0FF" stroke-opacity="0.62" stroke-miterlimit="10"/>
<path opacity="0.3" d="M672.397 719.969L648.601 684.626L625.032 719.969L601.236 755.313H648.828L696.193 755.119L672.397 719.969Z" stroke="#00F0FF" stroke-opacity="0.62" stroke-miterlimit="10"/>
<path opacity="0.3" d="M945.255 852.41L921.46 817.066L897.664 852.41L873.868 887.559H921.46H969.051L945.255 852.41Z" stroke="#00F0FF" stroke-opacity="0.62" stroke-miterlimit="10"/>
<path opacity="0.3" d="M1102.08 581.508L1114.32 542.28L1068.54 552.767L1022.54 563.448L1056.3 592.188L1089.84 620.929L1102.08 581.508Z" stroke="#00F0FF" stroke-opacity="0.62" stroke-miterlimit="10"/>
<path opacity="0.3" d="M320.446 124.566L332.684 85.3389L286.905 95.8254L240.9 106.506L274.441 135.247L308.208 163.988L320.446 124.566Z" stroke="#00F0FF" stroke-opacity="0.62" stroke-miterlimit="10"/>
<path opacity="0.3" d="M287.809 975.142L300.047 935.72L254.269 946.207L208.264 956.887L242.031 985.628L275.572 1014.37L287.809 975.142Z" stroke="#00F0FF" stroke-opacity="0.62" stroke-miterlimit="10"/>
<path opacity="0.3" d="M1150.35 168.648L1191.37 148.258L1150.35 127.867L1109.1 107.477V148.258V189.039L1150.35 168.648Z" stroke="#00F0FF" stroke-opacity="0.62" stroke-miterlimit="10"/>
<path opacity="0.3" d="M286.904 575.488L327.923 555.098L286.678 534.901L245.658 514.511V555.292V595.879L286.904 575.488Z" stroke="#00F0FF" stroke-opacity="0.62" stroke-miterlimit="10"/>
<path opacity="0.3" d="M831.488 508.879C831.488 525.968 815.398 539.756 795.454 539.756C775.511 539.756 759.421 525.968 759.421 508.879C759.421 491.79 775.511 478.002 795.454 478.002C815.398 478.002 831.488 491.79 831.488 508.879Z" stroke="#00F0FF" stroke-opacity="0.62" stroke-miterlimit="10"/>
<path opacity="0.3" d="M649.281 163.988C649.281 181.078 633.191 194.865 613.247 194.865C593.304 194.865 577.214 181.078 577.214 163.988C577.214 146.899 593.304 133.111 613.247 133.111C633.191 133.111 649.281 146.899 649.281 163.988Z" stroke="#00F0FF" stroke-opacity="0.62" stroke-miterlimit="10"/>
<path opacity="0.3" d="M672.396 1076.12C672.396 1093.21 656.306 1107 636.363 1107C616.42 1107 600.329 1093.21 600.329 1076.12C600.329 1059.03 616.42 1045.25 636.363 1045.25C656.079 1045.05 672.396 1059.03 672.396 1076.12Z" stroke="#00F0FF" stroke-opacity="0.62" stroke-miterlimit="10"/>
<path opacity="0.3" d="M768.713 1029.9C768.713 1012.82 784.803 999.028 804.746 999.028C824.69 999.028 840.78 1012.82 840.78 1029.9" stroke="#00F0FF" stroke-opacity="0.62" stroke-miterlimit="10"/>
<path opacity="0.3" d="M480.899 555.292C480.899 538.203 496.99 524.415 516.933 524.415C536.876 524.415 552.966 538.203 552.966 555.292" stroke="#00F0FF" stroke-opacity="0.62" stroke-miterlimit="10"/>
<path opacity="0.3" d="M101.525 304.391C101.525 287.302 117.616 273.514 137.332 273.514C157.049 273.514 173.139 287.302 173.139 304.391" stroke="#00F0FF" stroke-opacity="0.62" stroke-miterlimit="10"/>
<path opacity="0.3" d="M1010.52 354.882C990.576 354.882 974.485 341.094 974.485 324.199C974.485 307.304 990.576 293.516 1010.52 293.516" stroke="#00F0FF" stroke-opacity="0.62" stroke-miterlimit="10"/>
<path opacity="0.3" d="M142.09 1075.93C122.147 1075.93 106.057 1062.14 106.057 1045.25C106.057 1028.35 122.147 1014.56 142.09 1014.56" stroke="#00F0FF" stroke-opacity="0.62" stroke-miterlimit="10"/>
<path opacity="0.3" d="M529.171 93.1069C509.228 93.1069 493.138 79.319 493.138 62.424C493.138 45.5291 509.228 31.7412 529.171 31.7412" stroke="#00F0FF" stroke-opacity="0.62" stroke-miterlimit="10"/>
<path opacity="0.3" d="M160.22 750.846C160.22 767.935 144.13 781.723 124.187 781.723C104.244 781.723 88.1533 767.935 88.1533 750.846C88.1533 733.757 104.244 719.969 124.187 719.969C144.13 719.969 160.22 733.757 160.22 750.846Z" stroke="#00F0FF" stroke-opacity="0.62" stroke-miterlimit="10"/>
<path opacity="0.3" d="M1272.28 786.19C1272.28 803.279 1256.19 817.067 1236.24 817.067C1216.3 817.067 1200.21 803.279 1200.21 786.19C1200.21 769.1 1216.3 755.312 1236.24 755.312C1256.19 755.312 1272.28 769.1 1272.28 786.19Z" stroke="#00F0FF" stroke-opacity="0.62" stroke-miterlimit="10"/>
<path opacity="0.3" d="M1244.4 293.322H1172.56V354.882H1244.4V293.322Z" stroke="#00F0FF" stroke-opacity="0.62" stroke-miterlimit="10"/>
<path opacity="0.3" d="M433.303 324.199H361.463V385.759H433.303V324.199Z" stroke="#00F0FF" stroke-opacity="0.62" stroke-miterlimit="10"/>
<path opacity="0.3" d="M429.678 716.667H357.838V778.227H429.678V716.667Z" stroke="#00F0FF" stroke-opacity="0.62" stroke-miterlimit="10"/>
<path opacity="0.3" d="M1244.4 1014.37H1172.56V1075.93H1244.4V1014.37Z" stroke="#00F0FF" stroke-opacity="0.62" stroke-miterlimit="10"/>
<path opacity="0.3" d="M946.84 31.5469H875V93.1068H946.84V31.5469Z" stroke="#00F0FF" stroke-opacity="0.62" stroke-miterlimit="10"/>
<g opacity="0.3">
<path opacity="0.3" d="M771.887 656.661C756.25 656.661 758.969 632.775 739.026 632.775" stroke="#00F0FF" stroke-opacity="0.62" stroke-miterlimit="10"/>
<path opacity="0.3" d="M837.833 656.661C822.196 656.661 824.916 632.775 804.973 632.775" stroke="#00F0FF" stroke-opacity="0.62" stroke-miterlimit="10"/>
<path opacity="0.3" d="M771.887 656.661C787.524 656.661 784.804 632.775 804.748 632.775" stroke="#00F0FF" stroke-opacity="0.62" stroke-miterlimit="10"/>
<path opacity="0.3" d="M837.834 656.661C853.471 656.661 850.752 632.775 870.695 632.775" stroke="#00F0FF" stroke-opacity="0.62" stroke-miterlimit="10"/>
</g>
<g opacity="0.3">
<path opacity="0.3" d="M959.531 1099.81C943.894 1099.81 946.613 1075.93 926.67 1075.93" stroke="#00F0FF" stroke-opacity="0.62" stroke-miterlimit="10"/>
<path opacity="0.3" d="M1025.48 1099.81C1009.84 1099.81 1012.56 1075.93 992.618 1075.93" stroke="#00F0FF" stroke-opacity="0.62" stroke-miterlimit="10"/>
<path opacity="0.3" d="M959.53 1099.81C975.167 1099.81 972.448 1075.93 992.391 1075.93" stroke="#00F0FF" stroke-opacity="0.62" stroke-miterlimit="10"/>
<path opacity="0.3" d="M1025.48 1099.81C1041.12 1099.81 1038.4 1075.93 1058.34 1075.93" stroke="#00F0FF" stroke-opacity="0.62" stroke-miterlimit="10"/>
</g>
<g opacity="0.3">
<path opacity="0.3" d="M1049.5 460.912C1033.87 460.912 1036.58 437.026 1016.64 437.026" stroke="#00F0FF" stroke-opacity="0.62" stroke-miterlimit="10"/>
<path opacity="0.3" d="M1115.22 460.912C1099.59 460.912 1102.31 437.026 1082.36 437.026" stroke="#00F0FF" stroke-opacity="0.62" stroke-miterlimit="10"/>
<path opacity="0.3" d="M1049.5 460.912C1065.14 460.912 1062.42 437.026 1082.36 437.026" stroke="#00F0FF" stroke-opacity="0.62" stroke-miterlimit="10"/>
<path opacity="0.3" d="M1115.22 460.912C1130.86 460.912 1128.14 437.026 1148.08 437.026" stroke="#00F0FF" stroke-opacity="0.62" stroke-miterlimit="10"/>
</g>
<g opacity="0.3">
<path opacity="0.3" d="M133.252 432.172C117.615 432.172 120.335 408.286 100.392 408.286" stroke="#00F0FF" stroke-opacity="0.62" stroke-miterlimit="10"/>
<path opacity="0.3" d="M199.198 432.172C183.56 432.172 186.28 408.286 166.337 408.286" stroke="#00F0FF" stroke-opacity="0.62" stroke-miterlimit="10"/>
<path opacity="0.3" d="M133.251 432.172C148.888 432.172 146.169 408.286 166.112 408.286" stroke="#00F0FF" stroke-opacity="0.62" stroke-miterlimit="10"/>
<path opacity="0.3" d="M199.197 432.172C214.834 432.172 212.115 408.286 232.058 408.286" stroke="#00F0FF" stroke-opacity="0.62" stroke-miterlimit="10"/>
</g>
<g opacity="0.3">
<path opacity="0.3" d="M777.324 113.497C777.324 126.897 749.449 124.566 749.449 141.655" stroke="#00F0FF" stroke-opacity="0.62" stroke-miterlimit="10"/>
<path opacity="0.3" d="M777.324 56.9858C777.324 70.3853 749.449 68.055 749.449 85.1442" stroke="#00F0FF" stroke-opacity="0.62" stroke-miterlimit="10"/>
<path opacity="0.3" d="M777.324 113.497C777.324 100.097 749.449 102.428 749.449 85.3384" stroke="#00F0FF" stroke-opacity="0.62" stroke-miterlimit="10"/>
<path opacity="0.3" d="M777.324 56.9864C777.324 43.587 749.449 45.9173 749.449 28.8281" stroke="#00F0FF" stroke-opacity="0.62" stroke-miterlimit="10"/>
</g>
<g opacity="0.3">
<path opacity="0.3" d="M575.403 408.868C575.403 422.267 547.528 419.937 547.528 437.026" stroke="#00F0FF" stroke-opacity="0.62" stroke-miterlimit="10"/>
<path opacity="0.3" d="M575.403 352.357C575.403 365.757 547.528 363.427 547.528 380.516" stroke="#00F0FF" stroke-opacity="0.62" stroke-miterlimit="10"/>
<path opacity="0.3" d="M575.403 408.868C575.403 395.469 547.528 397.799 547.528 380.71" stroke="#00F0FF" stroke-opacity="0.62" stroke-miterlimit="10"/>
<path opacity="0.3" d="M575.403 352.357C575.403 338.958 547.528 341.288 547.528 324.199" stroke="#00F0FF" stroke-opacity="0.62" stroke-miterlimit="10"/>
</g>
<g opacity="0.3">
<path opacity="0.3" d="M1122.93 880.568C1122.93 893.968 1095.06 891.637 1095.06 908.727" stroke="#00F0FF" stroke-opacity="0.62" stroke-miterlimit="10"/>
<path opacity="0.3" d="M1122.93 824.058C1122.93 837.458 1095.06 835.127 1095.06 852.216" stroke="#00F0FF" stroke-opacity="0.62" stroke-miterlimit="10"/>
<path opacity="0.3" d="M1122.93 880.568C1122.93 867.169 1095.06 869.499 1095.06 852.41" stroke="#00F0FF" stroke-opacity="0.62" stroke-miterlimit="10"/>
<path opacity="0.3" d="M1122.93 824.058C1122.93 810.658 1095.05 812.989 1095.05 795.899" stroke="#00F0FF" stroke-opacity="0.62" stroke-miterlimit="10"/>
</g>
<g opacity="0.3">
<path opacity="0.3" d="M443.501 925.039C443.501 938.439 415.626 936.108 415.626 953.197" stroke="#00F0FF" stroke-opacity="0.62" stroke-miterlimit="10"/>
<path opacity="0.3" d="M443.501 868.528C443.501 881.928 415.626 879.597 415.626 896.687" stroke="#00F0FF" stroke-opacity="0.62" stroke-miterlimit="10"/>
<path opacity="0.3" d="M443.501 925.039C443.501 911.639 415.626 913.97 415.626 896.88" stroke="#00F0FF" stroke-opacity="0.62" stroke-miterlimit="10"/>
<path opacity="0.3" d="M443.501 868.528C443.501 855.129 415.626 857.459 415.626 840.37" stroke="#00F0FF" stroke-opacity="0.62" stroke-miterlimit="10"/>
</g>
<path opacity="0.3" d="M850.748 719.969H932.107" stroke="#00F0FF" stroke-opacity="0.62" stroke-miterlimit="10"/>
<path opacity="0.3" d="M51.667 518.589H133.026" stroke="#00F0FF" stroke-opacity="0.62" stroke-miterlimit="10"/>
<path opacity="0.3" d="M856.87 194.866H938.229" stroke="#00F0FF" stroke-opacity="0.62" stroke-miterlimit="10"/>
<path opacity="0.3" d="M1177.32 37.7607H1258.68" stroke="#00F0FF" stroke-opacity="0.62" stroke-miterlimit="10"/>
<path opacity="0.3" d="M375.741 1075.93H457.1" stroke="#00F0FF" stroke-opacity="0.62" stroke-miterlimit="10"/>
<path opacity="0.3" d="M584.464 941.352L642.027 892.026" stroke="#00F0FF" stroke-opacity="0.62" stroke-miterlimit="10"/>
<path opacity="0.3" d="M108.775 86.8922L166.112 37.7607" stroke="#00F0FF" stroke-opacity="0.62" stroke-miterlimit="10"/>
<path opacity="0.3" d="M1217.88 591.8L1275.45 542.669" stroke="#00F0FF" stroke-opacity="0.62" stroke-miterlimit="10"/>
</g>
<g opacity="0.3">
<path opacity="0.3" d="M2034.02 288.855L2010.22 253.512L1986.42 288.855L1962.63 324.199H2010.22L2057.81 324.005L2034.02 288.855Z" stroke="#00F0FF" stroke-opacity="0.62" stroke-miterlimit="10"/>
<path opacity="0.3" d="M1955.15 719.969L1931.36 684.626L1907.79 719.969L1883.99 755.313H1931.58L1978.95 755.119L1955.15 719.969Z" stroke="#00F0FF" stroke-opacity="0.62" stroke-miterlimit="10"/>
<path opacity="0.3" d="M2228.01 852.41L2204.21 817.066L2180.42 852.41L2156.62 887.559H2204.21H2251.81L2228.01 852.41Z" stroke="#00F0FF" stroke-opacity="0.62" stroke-miterlimit="10"/>
<path opacity="0.3" d="M2384.84 581.508L2397.07 542.28L2351.3 552.767L2305.29 563.448L2339.06 592.188L2372.6 620.929L2384.84 581.508Z" stroke="#00F0FF" stroke-opacity="0.62" stroke-miterlimit="10"/>
<path opacity="0.3" d="M1603.2 124.566L1615.44 85.3389L1569.66 95.8254L1523.66 106.506L1557.2 135.247L1590.96 163.988L1603.2 124.566Z" stroke="#00F0FF" stroke-opacity="0.62" stroke-miterlimit="10"/>
<path opacity="0.3" d="M1570.56 975.142L1582.8 935.72L1537.02 946.207L1491.02 956.887L1524.79 985.628L1558.33 1014.37L1570.56 975.142Z" stroke="#00F0FF" stroke-opacity="0.62" stroke-miterlimit="10"/>
<path opacity="0.3" d="M2433.1 168.648L2474.12 148.258L2433.1 127.867L2391.86 107.477V148.258V189.039L2433.1 168.648Z" stroke="#00F0FF" stroke-opacity="0.62" stroke-miterlimit="10"/>
<path opacity="0.3" d="M1569.66 575.488L1610.68 555.098L1569.43 534.901L1528.41 514.511V555.292V595.879L1569.66 575.488Z" stroke="#00F0FF" stroke-opacity="0.62" stroke-miterlimit="10"/>
<path opacity="0.3" d="M2114.24 508.879C2114.24 525.968 2098.15 539.756 2078.21 539.756C2058.27 539.756 2042.18 525.968 2042.18 508.879C2042.18 491.79 2058.27 478.002 2078.21 478.002C2098.15 478.002 2114.24 491.79 2114.24 508.879Z" stroke="#00F0FF" stroke-opacity="0.62" stroke-miterlimit="10"/>
<path opacity="0.3" d="M1932.04 163.988C1932.04 181.078 1915.95 194.865 1896 194.865C1876.06 194.865 1859.97 181.078 1859.97 163.988C1859.97 146.899 1876.06 133.111 1896 133.111C1915.95 133.111 1932.04 146.899 1932.04 163.988Z" stroke="#00F0FF" stroke-opacity="0.62" stroke-miterlimit="10"/>
<path opacity="0.3" d="M1955.15 1076.12C1955.15 1093.21 1939.06 1107 1919.12 1107C1899.18 1107 1883.08 1093.21 1883.08 1076.12C1883.08 1059.03 1899.18 1045.25 1919.12 1045.25C1938.83 1045.05 1955.15 1059.03 1955.15 1076.12Z" stroke="#00F0FF" stroke-opacity="0.62" stroke-miterlimit="10"/>
<path opacity="0.3" d="M2051.47 1029.9C2051.47 1012.82 2067.56 999.028 2087.5 999.028C2107.44 999.028 2123.53 1012.82 2123.53 1029.9" stroke="#00F0FF" stroke-opacity="0.62" stroke-miterlimit="10"/>
<path opacity="0.3" d="M1763.65 555.292C1763.65 538.203 1779.74 524.415 1799.69 524.415C1819.63 524.415 1835.72 538.203 1835.72 555.292" stroke="#00F0FF" stroke-opacity="0.62" stroke-miterlimit="10"/>
<path opacity="0.3" d="M1384.28 304.391C1384.28 287.302 1400.37 273.514 1420.09 273.514C1439.8 273.514 1455.89 287.302 1455.89 304.391" stroke="#00F0FF" stroke-opacity="0.62" stroke-miterlimit="10"/>
<path opacity="0.3" d="M2293.27 354.882C2273.33 354.882 2257.24 341.094 2257.24 324.199C2257.24 307.304 2273.33 293.516 2293.27 293.516" stroke="#00F0FF" stroke-opacity="0.62" stroke-miterlimit="10"/>
<path opacity="0.3" d="M1424.85 1075.93C1404.9 1075.93 1388.81 1062.14 1388.81 1045.25C1388.81 1028.35 1404.9 1014.56 1424.85 1014.56" stroke="#00F0FF" stroke-opacity="0.62" stroke-miterlimit="10"/>
<path opacity="0.3" d="M1811.93 93.1069C1791.98 93.1069 1775.89 79.319 1775.89 62.424C1775.89 45.5291 1791.98 31.7412 1811.93 31.7412" stroke="#00F0FF" stroke-opacity="0.62" stroke-miterlimit="10"/>
<path opacity="0.3" d="M1442.98 750.846C1442.98 767.935 1426.88 781.723 1406.94 781.723C1387 781.723 1370.91 767.935 1370.91 750.846C1370.91 733.757 1387 719.969 1406.94 719.969C1426.88 719.969 1442.98 733.757 1442.98 750.846Z" stroke="#00F0FF" stroke-opacity="0.62" stroke-miterlimit="10"/>
<path opacity="0.3" d="M2555.03 786.19C2555.03 803.279 2538.94 817.067 2519 817.067C2499.05 817.067 2482.96 803.279 2482.96 786.19C2482.96 769.1 2499.05 755.312 2519 755.312C2538.94 755.312 2555.03 769.1 2555.03 786.19Z" stroke="#00F0FF" stroke-opacity="0.62" stroke-miterlimit="10"/>
<path opacity="0.3" d="M2527.15 293.322H2455.31V354.882H2527.15V293.322Z" stroke="#00F0FF" stroke-opacity="0.62" stroke-miterlimit="10"/>
<path opacity="0.3" d="M1716.06 324.199H1644.22V385.759H1716.06V324.199Z" stroke="#00F0FF" stroke-opacity="0.62" stroke-miterlimit="10"/>
<path opacity="0.3" d="M1712.43 716.667H1640.59V778.227H1712.43V716.667Z" stroke="#00F0FF" stroke-opacity="0.62" stroke-miterlimit="10"/>
<path opacity="0.3" d="M2527.15 1014.37H2455.31V1075.93H2527.15V1014.37Z" stroke="#00F0FF" stroke-opacity="0.62" stroke-miterlimit="10"/>
<path opacity="0.3" d="M2229.6 31.5469H2157.75V93.1068H2229.6V31.5469Z" stroke="#00F0FF" stroke-opacity="0.62" stroke-miterlimit="10"/>
<g opacity="0.3">
<path opacity="0.3" d="M2054.64 656.661C2039.01 656.661 2041.73 632.775 2021.78 632.775" stroke="#00F0FF" stroke-opacity="0.62" stroke-miterlimit="10"/>
<path opacity="0.3" d="M2120.59 656.661C2104.95 656.661 2107.67 632.775 2087.73 632.775" stroke="#00F0FF" stroke-opacity="0.62" stroke-miterlimit="10"/>
<path opacity="0.3" d="M2054.64 656.661C2070.28 656.661 2067.56 632.775 2087.5 632.775" stroke="#00F0FF" stroke-opacity="0.62" stroke-miterlimit="10"/>
<path opacity="0.3" d="M2120.59 656.661C2136.23 656.661 2133.51 632.775 2153.45 632.775" stroke="#00F0FF" stroke-opacity="0.62" stroke-miterlimit="10"/>
</g>
<g opacity="0.3">
<path opacity="0.3" d="M2242.29 1099.82C2226.65 1099.82 2229.37 1075.93 2209.43 1075.93" stroke="#00F0FF" stroke-opacity="0.62" stroke-miterlimit="10"/>
<path opacity="0.3" d="M2308.23 1099.82C2292.6 1099.82 2295.32 1075.93 2275.37 1075.93" stroke="#00F0FF" stroke-opacity="0.62" stroke-miterlimit="10"/>
<path opacity="0.3" d="M2242.29 1099.82C2257.92 1099.82 2255.2 1075.93 2275.15 1075.93" stroke="#00F0FF" stroke-opacity="0.62" stroke-miterlimit="10"/>
<path opacity="0.3" d="M2308.23 1099.82C2323.87 1099.82 2321.15 1075.93 2341.1 1075.93" stroke="#00F0FF" stroke-opacity="0.62" stroke-miterlimit="10"/>
</g>
<g opacity="0.3">
<path opacity="0.3" d="M2332.26 460.912C2316.62 460.912 2319.34 437.026 2299.4 437.026" stroke="#00F0FF" stroke-opacity="0.62" stroke-miterlimit="10"/>
<path opacity="0.3" d="M2397.98 460.912C2382.34 460.912 2385.06 437.026 2365.12 437.026" stroke="#00F0FF" stroke-opacity="0.62" stroke-miterlimit="10"/>
<path opacity="0.3" d="M2332.26 460.912C2347.89 460.912 2345.17 437.026 2365.12 437.026" stroke="#00F0FF" stroke-opacity="0.62" stroke-miterlimit="10"/>
<path opacity="0.3" d="M2397.98 460.912C2413.61 460.912 2410.9 437.026 2430.84 437.026" stroke="#00F0FF" stroke-opacity="0.62" stroke-miterlimit="10"/>
</g>
<g opacity="0.3">
<path opacity="0.3" d="M1416.01 432.172C1400.37 432.172 1403.09 408.286 1383.14 408.286" stroke="#00F0FF" stroke-opacity="0.62" stroke-miterlimit="10"/>
<path opacity="0.3" d="M1481.95 432.172C1466.31 432.172 1469.03 408.286 1449.09 408.286" stroke="#00F0FF" stroke-opacity="0.62" stroke-miterlimit="10"/>
<path opacity="0.3" d="M1416 432.172C1431.64 432.172 1428.92 408.286 1448.86 408.286" stroke="#00F0FF" stroke-opacity="0.62" stroke-miterlimit="10"/>
<path opacity="0.3" d="M1481.95 432.172C1497.59 432.172 1494.87 408.286 1514.81 408.286" stroke="#00F0FF" stroke-opacity="0.62" stroke-miterlimit="10"/>
</g>
<g opacity="0.3">
<path opacity="0.3" d="M2060.08 113.497C2060.08 126.897 2032.2 124.566 2032.2 141.655" stroke="#00F0FF" stroke-opacity="0.62" stroke-miterlimit="10"/>
<path opacity="0.3" d="M2060.08 56.9858C2060.08 70.3853 2032.2 68.055 2032.2 85.1442" stroke="#00F0FF" stroke-opacity="0.62" stroke-miterlimit="10"/>
<path opacity="0.3" d="M2060.08 113.497C2060.08 100.097 2032.2 102.428 2032.2 85.3384" stroke="#00F0FF" stroke-opacity="0.62" stroke-miterlimit="10"/>
<path opacity="0.3" d="M2060.08 56.9864C2060.08 43.587 2032.2 45.9173 2032.2 28.8281" stroke="#00F0FF" stroke-opacity="0.62" stroke-miterlimit="10"/>
</g>
<g opacity="0.3">
<path opacity="0.3" d="M1858.16 408.868C1858.16 422.267 1830.28 419.937 1830.28 437.026" stroke="#00F0FF" stroke-opacity="0.62" stroke-miterlimit="10"/>
<path opacity="0.3" d="M1858.16 352.357C1858.16 365.757 1830.28 363.427 1830.28 380.516" stroke="#00F0FF" stroke-opacity="0.62" stroke-miterlimit="10"/>
<path opacity="0.3" d="M1858.16 408.868C1858.16 395.469 1830.28 397.799 1830.28 380.71" stroke="#00F0FF" stroke-opacity="0.62" stroke-miterlimit="10"/>
<path opacity="0.3" d="M1858.16 352.357C1858.16 338.958 1830.28 341.288 1830.28 324.199" stroke="#00F0FF" stroke-opacity="0.62" stroke-miterlimit="10"/>
</g>
<g opacity="0.3">
<path opacity="0.3" d="M2405.68 880.568C2405.68 893.968 2377.81 891.637 2377.81 908.727" stroke="#00F0FF" stroke-opacity="0.62" stroke-miterlimit="10"/>
<path opacity="0.3" d="M2405.68 824.058C2405.68 837.458 2377.81 835.127 2377.81 852.216" stroke="#00F0FF" stroke-opacity="0.62" stroke-miterlimit="10"/>
<path opacity="0.3" d="M2405.68 880.568C2405.68 867.169 2377.81 869.499 2377.81 852.41" stroke="#00F0FF" stroke-opacity="0.62" stroke-miterlimit="10"/>
<path opacity="0.3" d="M2405.68 824.058C2405.68 810.658 2377.81 812.989 2377.81 795.899" stroke="#00F0FF" stroke-opacity="0.62" stroke-miterlimit="10"/>
</g>
<g opacity="0.3">
<path opacity="0.3" d="M1726.26 925.039C1726.26 938.439 1698.38 936.108 1698.38 953.197" stroke="#00F0FF" stroke-opacity="0.62" stroke-miterlimit="10"/>
<path opacity="0.3" d="M1726.26 868.528C1726.26 881.928 1698.38 879.597 1698.38 896.687" stroke="#00F0FF" stroke-opacity="0.62" stroke-miterlimit="10"/>
<path opacity="0.3" d="M1726.26 925.039C1726.26 911.64 1698.38 913.97 1698.38 896.881" stroke="#00F0FF" stroke-opacity="0.62" stroke-miterlimit="10"/>
<path opacity="0.3" d="M1726.26 868.528C1726.26 855.129 1698.38 857.459 1698.38 840.37" stroke="#00F0FF" stroke-opacity="0.62" stroke-miterlimit="10"/>
</g>
<path opacity="0.3" d="M2133.51 719.969H2214.86" stroke="#00F0FF" stroke-opacity="0.62" stroke-miterlimit="10"/>
<path opacity="0.3" d="M1334.42 518.589H1415.78" stroke="#00F0FF" stroke-opacity="0.62" stroke-miterlimit="10"/>
<path opacity="0.3" d="M2139.62 194.866H2220.98" stroke="#00F0FF" stroke-opacity="0.62" stroke-miterlimit="10"/>
<path opacity="0.3" d="M2460.07 37.7607H2541.43" stroke="#00F0FF" stroke-opacity="0.62" stroke-miterlimit="10"/>
<path opacity="0.3" d="M1658.5 1075.93H1739.85" stroke="#00F0FF" stroke-opacity="0.62" stroke-miterlimit="10"/>
<path opacity="0.3" d="M1867.22 941.352L1924.78 892.026" stroke="#00F0FF" stroke-opacity="0.62" stroke-miterlimit="10"/>
<path opacity="0.3" d="M1391.53 86.8922L1448.87 37.7607" stroke="#00F0FF" stroke-opacity="0.62" stroke-miterlimit="10"/>
<path opacity="0.3" d="M2500.64 591.8L2558.2 542.669" stroke="#00F0FF" stroke-opacity="0.62" stroke-miterlimit="10"/>
</g>
<path d="M740.052 858.633C733.53 862.096 724.758 860.557 720.709 854.786C716.661 849.208 718.46 841.706 725.208 838.243C731.73 834.781 740.502 836.32 744.551 842.09C748.599 847.476 746.575 854.978 740.052 858.633Z" stroke="#00F0FF" stroke-opacity="0.62" stroke-width="5" stroke-miterlimit="10" stroke-linecap="round" stroke-linejoin="round"/>
<path d="M2022.81 858.633C2016.28 862.096 2007.51 860.557 2003.46 854.786C1999.42 849.208 2001.22 841.706 2007.96 838.243C2014.49 834.781 2023.26 836.32 2027.31 842.09C2031.35 847.476 2029.33 854.978 2022.81 858.633Z" stroke="#00F0FF" stroke-opacity="0.62" stroke-width="5" stroke-miterlimit="10" stroke-linecap="round" stroke-linejoin="round"/>
<path d="M116.589 627.639C109.741 631.275 100.53 629.659 96.2793 623.6C92.0284 617.742 93.9177 609.865 101.003 606.23C107.851 602.594 117.062 604.21 121.313 610.269C125.564 616.127 123.438 623.802 116.589 627.639Z" stroke="#00F0FF" stroke-opacity="0.62" stroke-width="5" stroke-miterlimit="10" stroke-linecap="round" stroke-linejoin="round"/>
<path d="M261.473 244.097C254.951 247.56 246.179 246.021 242.13 240.25C238.082 234.672 239.881 227.17 246.629 223.707C253.151 220.245 261.923 221.783 265.972 227.554C270.02 233.133 267.996 240.442 261.473 244.097Z" stroke="#00F0FF" stroke-opacity="0.62" stroke-width="5" stroke-miterlimit="10" stroke-linecap="round" stroke-linejoin="round"/>
<path d="M1544.23 244.097C1537.71 247.56 1528.94 246.021 1524.89 240.25C1520.84 234.672 1522.64 227.17 1529.39 223.707C1535.91 220.245 1544.68 221.783 1548.73 227.554C1552.78 233.133 1550.75 240.442 1544.23 244.097Z" stroke="#00F0FF" stroke-opacity="0.62" stroke-width="5" stroke-miterlimit="10" stroke-linecap="round" stroke-linejoin="round"/>
<path d="M1043.2 238.084C1036.68 241.546 1027.9 240.008 1023.85 234.237C1019.81 228.658 1021.61 221.156 1028.35 217.694C1034.88 214.231 1043.65 215.77 1047.7 221.541C1051.74 227.119 1049.72 234.429 1043.2 238.084Z" stroke="#00F0FF" stroke-opacity="0.62" stroke-width="5" stroke-miterlimit="10" stroke-linecap="round" stroke-linejoin="round"/>
<path d="M2325.95 238.084C2319.43 241.546 2310.66 240.008 2306.61 234.237C2302.56 228.658 2304.36 221.156 2311.11 217.694C2317.63 214.231 2326.4 215.77 2330.45 221.541C2334.5 227.119 2332.48 234.429 2325.95 238.084Z" stroke="#00F0FF" stroke-opacity="0.62" stroke-width="5" stroke-miterlimit="10" stroke-linecap="round" stroke-linejoin="round"/>
<path d="M2526.53 672.137C2520.04 675.773 2511.32 674.157 2507.29 668.097C2503.26 662.24 2505.05 654.363 2511.77 650.727C2518.25 647.092 2526.98 648.708 2531 654.767C2535.25 660.624 2533.24 668.299 2526.53 672.137Z" stroke="#00F0FF" stroke-opacity="0.62" stroke-width="5" stroke-miterlimit="10" stroke-linecap="round" stroke-linejoin="round"/>
</g>
</svg>
