<svg width="81" height="81" viewBox="0 0 81 81" fill="none" xmlns="http://www.w3.org/2000/svg">
<g clip-path="url(#clip0_93_177)">
<path d="M41.5682 10.3629C41.2336 10.2072 40.8691 10.1265 40.5 10.1265C40.131 10.1265 39.7664 10.2072 39.4318 10.3629L1.46309 28.0816C1.01598 28.2903 0.639612 28.6252 0.380274 29.0449C0.120936 29.4647 -0.010065 29.9511 0.00338188 30.4443C0.0168288 30.9376 0.174137 31.4161 0.455961 31.8211C0.737784 32.2261 1.13183 32.5399 1.58965 32.724L39.5584 47.9115C40.1628 48.1537 40.8373 48.1537 41.4416 47.9115L70.875 36.1462V65.8125C69.5324 65.8125 68.2447 66.3458 67.2953 67.2952C66.3459 68.2446 65.8125 69.5323 65.8125 70.875V81H81V70.875C81 69.5323 80.4667 68.2446 79.5173 67.2952C78.5678 66.3458 77.2802 65.8125 75.9375 65.8125V34.1161L79.4104 32.724C79.8682 32.5399 80.2623 32.2261 80.5441 31.8211C80.8259 31.4161 80.9832 30.9376 80.9967 30.4443C81.0101 29.9511 80.8791 29.4647 80.6198 29.0449C80.3604 28.6252 79.9841 28.2903 79.537 28.0816L41.5682 10.3629Z" fill="white"/>
<path d="M21.141 45.7245C20.815 45.6017 20.4672 45.5475 20.1194 45.5653C19.7715 45.5831 19.4311 45.6725 19.1194 45.8279C18.8076 45.9832 18.5313 46.2013 18.3078 46.4684C18.0842 46.7354 17.9181 47.0458 17.82 47.38L15.2887 55.9862C15.1114 56.5904 15.1657 57.239 15.4409 57.8053C15.7161 58.3716 16.1925 58.8151 16.7771 59.049L39.5583 68.1615C40.1627 68.4037 40.8372 68.4037 41.4416 68.1615L64.2228 59.049C64.8074 58.8151 65.2838 58.3716 65.559 57.8053C65.8343 57.239 65.8885 56.5904 65.7112 55.9862L63.18 47.38C63.0818 47.0458 62.9157 46.7354 62.6921 46.4684C62.4686 46.2013 62.1923 45.9832 61.8805 45.8279C61.5688 45.6725 61.2284 45.5831 60.8805 45.5653C60.5327 45.5475 60.1849 45.6017 59.859 45.7245L40.5 52.9841L21.141 45.7245Z" fill="white"/>
</g>
<defs>
<clipPath id="clip0_93_177">
<rect width="81" height="81" fill="white"/>
</clipPath>
</defs>
</svg>
