<svg width="2560" height="1710" viewBox="0 0 2560 1710" fill="none" xmlns="http://www.w3.org/2000/svg">
<rect x="-0.000488281" width="2560" height="1468" fill="url(#paint0_linear_130_3567)"/>
<path fill-rule="evenodd" clip-rule="evenodd" d="M-3.00049 1223.99C-3.00049 1223.99 214.488 1441.99 533 1441.99C851.511 1441.99 949.24 1197.44 1306.56 1223.8C1663.87 1250.16 1851.36 1385.49 2160.2 1405.8C2760.87 1445.3 3184 1313.3 3184 1313.3L3022.5 1560.5L-97.0005 1495L-3.00049 1223.99Z" fill="white" fill-opacity="0.21"/>
<path fill-rule="evenodd" clip-rule="evenodd" d="M3174.23 1127.54C3174.23 1127.54 2986.07 1370.83 2668 1387.5C2349.92 1404.17 2340.4 1261.32 1984.96 1306.35C1629.51 1351.37 1631.76 1429.69 1324.41 1466.13C1188.49 1482.25 925.969 1095.48 412.84 1316.64C-100.288 1537.8 -948.488 973.414 -948.488 973.414L-226.501 1468L3174 1495L3174.23 1127.54Z" fill="white" fill-opacity="0.2"/>
<path fill-rule="evenodd" clip-rule="evenodd" d="M-3.00049 1301.3C-3.00049 1301.3 61.7261 1446.8 342.5 1446.8C623.273 1446.8 698.018 1238.44 1013 1264.8C1327.98 1291.16 1493.26 1426.49 1765.5 1446.8C2295 1486.3 2668 1354.3 2668 1354.3L2639.5 1495L-32.0005 1468L-3.00049 1301.3Z" fill="white"/>
<defs>
<linearGradient id="paint0_linear_130_3567" x1="2874.01" y1="732.697" x2="2019.31" y2="-766.366" gradientUnits="userSpaceOnUse">
<stop offset="0.005" stop-color="#9C27B0"/>
<stop offset="1" stop-color="#2E1371"/>
</linearGradient>
</defs>
</svg>
